<svg width="21" height="20" viewBox="0 0 21 20" fill="none" xmlns="http://www.w3.org/2000/svg">
<path d="M18.8333 13.95V3.89168C18.8333 2.89168 18.0167 2.15001 17.025 2.23335H16.975C15.225 2.38335 12.5667 3.27502 11.0833 4.20835L10.9417 4.30001C10.7 4.45001 10.3 4.45001 10.0583 4.30001L9.85 4.17502C8.36666 3.25002 5.71666 2.36668 3.96666 2.22501C2.975 2.14168 2.16666 2.89168 2.16666 3.88335V13.95C2.16666 14.75 2.81666 15.5 3.61666 15.6L3.85833 15.6333C5.66666 15.875 8.45833 16.7917 10.0583 17.6667L10.0917 17.6833C10.3167 17.8083 10.675 17.8083 10.8917 17.6833C12.4917 16.8 15.2917 15.875 17.1083 15.6333L17.3833 15.6C18.1833 15.5 18.8333 14.75 18.8333 13.95Z" stroke="white" stroke-width="1.8" stroke-linecap="round" stroke-linejoin="round"/>
<path d="M10.5 4.57501V17.075" stroke="white" stroke-width="1.8" stroke-linecap="round" stroke-linejoin="round"/>
<path d="M6.95833 7.07501H5.08333" stroke="white" stroke-width="1.8" stroke-linecap="round" stroke-linejoin="round"/>
<path d="M7.58333 9.57501H5.08333" stroke="white" stroke-width="1.8" stroke-linecap="round" stroke-linejoin="round"/>
</svg>
