<svg width="40" height="41" viewBox="0 0 40 41" fill="none" xmlns="http://www.w3.org/2000/svg">
<circle cx="20" cy="20.9717" r="20" fill="#5AA02C"/>
<path d="M15.948 14.9717H28.051C28.573 14.9717 29 15.3987 29 15.9207V16.0227C29 16.5447 28.573 16.9717 28.051 16.9717H15.948C15.426 16.9717 15 16.5447 15 16.0227V15.9207C15 15.3987 15.426 14.9717 15.948 14.9717Z" fill="white"/>
<path d="M28.051 19.9717H11.948C11.426 19.9717 11 20.3987 11 20.9207V21.0227C11 21.5447 11.426 21.9717 11.948 21.9717H28.051C28.573 21.9717 29 21.5447 29 21.0227V20.9207C29 20.3987 28.573 19.9717 28.051 19.9717Z" fill="white"/>
<path d="M24.051 24.9717H11.948C11.426 24.9717 11 25.3987 11 25.9207V26.0227C11 26.5447 11.426 26.9717 11.948 26.9717H24.051C24.573 26.9717 25 26.5447 25 26.0227V25.9207C25 25.3987 24.573 24.9717 24.051 24.9717Z" fill="white"/>
</svg>
