<svg width="25" height="24" viewBox="0 0 25 24" fill="none" xmlns="http://www.w3.org/2000/svg">
<path d="M22.47 18.3302C22.47 18.6902 22.39 19.0602 22.22 19.4202C22.05 19.7802 21.83 20.1202 21.54 20.4402C21.05 20.9802 20.51 21.3702 19.9 21.6202C19.3 21.8702 18.65 22.0002 17.95 22.0002C16.93 22.0002 15.84 21.7602 14.69 21.2702C13.54 20.7802 12.39 20.1202 11.25 19.2902C10.1 18.4502 9.01 17.5202 7.97 16.4902C6.94 15.4502 6.01 14.3602 5.18 13.2202C4.36 12.0802 3.7 10.9402 3.22 9.81024C2.74 8.67024 2.5 7.58024 2.5 6.54024C2.5 5.86024 2.62 5.21024 2.86 4.61024C3.1 4.00024 3.48 3.44024 4.01 2.94024C4.65 2.31024 5.35 2.00024 6.09 2.00024C6.37 2.00024 6.65 2.06024 6.9 2.18024C7.16 2.30024 7.39 2.48024 7.57 2.74024L9.89 6.01024C10.07 6.26024 10.2 6.49024 10.29 6.71024C10.38 6.92024 10.43 7.13024 10.43 7.32024C10.43 7.56024 10.36 7.80024 10.22 8.03024C10.09 8.26024 9.9 8.50024 9.66 8.74024L8.9 9.53024C8.79 9.64024 8.74 9.77024 8.74 9.93024C8.74 10.0102 8.75 10.0802 8.77 10.1602C8.8 10.2402 8.83 10.3002 8.85 10.3602C9.03 10.6902 9.34 11.1202 9.78 11.6402C10.23 12.1602 10.71 12.6902 11.23 13.2202C11.77 13.7502 12.29 14.2402 12.82 14.6902C13.34 15.1302 13.77 15.4302 14.11 15.6102C14.16 15.6302 14.22 15.6602 14.29 15.6902C14.37 15.7202 14.45 15.7302 14.54 15.7302C14.71 15.7302 14.84 15.6702 14.95 15.5602L15.71 14.8102C15.96 14.5602 16.2 14.3702 16.43 14.2502C16.66 14.1102 16.89 14.0402 17.14 14.0402C17.33 14.0402 17.53 14.0802 17.75 14.1702C17.97 14.2602 18.2 14.3902 18.45 14.5602L21.76 16.9102C22.02 17.0902 22.2 17.3002 22.31 17.5502C22.41 17.8002 22.47 18.0502 22.47 18.3302Z" stroke="white" stroke-width="1.5" stroke-miterlimit="10"/>
</svg>
