<svg width="14" height="14" viewBox="0 0 14 14" fill="none" xmlns="http://www.w3.org/2000/svg">
<path d="M12.8229 6.05745H12.825C13.1969 6.05745 13.4993 6.3585 13.5 6.73042C13.5054 8.53335 12.8081 10.231 11.5364 11.5094C10.2654 12.7879 8.57249 13.4946 6.76958 13.5H6.75C4.95383 13.5 3.26432 12.8034 1.9906 11.5364C0.712153 10.2654 0.00543111 8.5725 3.11311e-05 6.76958C-0.00536884 4.96598 0.691903 3.26903 1.9636 1.99057C3.23462 0.712125 4.92751 0.0054 6.73043 0C7.26705 0.0081 7.81379 0.0621 8.33759 0.18765C8.69939 0.2754 8.92282 0.6399 8.83507 1.00238C8.74799 1.36418 8.38147 1.58693 8.02102 1.50053C7.60185 1.39928 7.15702 1.35675 6.73447 1.35C5.29201 1.35405 3.93729 1.9197 2.92074 2.94233C1.90352 3.96495 1.34597 5.32305 1.35002 6.76552C1.35407 8.208 1.91972 9.56205 2.94234 10.5793C3.96159 11.5925 5.31293 12.15 6.75 12.15H6.76553C8.20799 12.146 9.56271 11.5803 10.5793 10.5577C11.5965 9.53438 12.154 8.17695 12.15 6.73448C12.1493 6.36188 12.4503 6.05813 12.8229 6.05745Z" fill="#AEAEB2"/>
</svg>
