<svg width="21" height="20" viewBox="0 0 21 20" fill="none" xmlns="http://www.w3.org/2000/svg">
<path d="M17.1667 10.1665V11.5833C17.1667 14.2083 15.6667 15.3333 13.4167 15.3333H5.91666C3.66666 15.3333 2.16666 14.2083 2.16666 11.5833V7.08325C2.16666 4.45825 3.66666 3.33325 5.91666 3.33325H8.16666C8.05833 3.64992 8 3.99992 8 4.37492V7.62494C8 8.43327 8.26666 9.11659 8.74166 9.59159C9.21666 10.0666 9.9 10.3333 10.7083 10.3333V11.4916C10.7083 11.9166 11.1917 12.1749 11.55 11.9415L13.9583 10.3333H16.125C16.5 10.3333 16.85 10.2749 17.1667 10.1665Z" stroke="white" stroke-width="1.5" stroke-miterlimit="10" stroke-linecap="round" stroke-linejoin="round"/>
<path d="M18.8333 4.37508V7.6251C18.8333 8.86677 18.2 9.80004 17.1667 10.1667C16.85 10.275 16.5 10.3334 16.125 10.3334H13.9583L11.55 11.9417C11.1917 12.175 10.7083 11.9168 10.7083 11.4918V10.3334C9.9 10.3334 9.21667 10.0668 8.74167 9.59176C8.26667 9.11676 8 8.43343 8 7.6251V4.37508C8 4.00008 8.05833 3.65008 8.16667 3.33341C8.53333 2.30008 9.46667 1.66675 10.7083 1.66675H16.125C17.75 1.66675 18.8333 2.75008 18.8333 4.37508Z" stroke="white" stroke-width="1.5" stroke-miterlimit="10" stroke-linecap="round" stroke-linejoin="round"/>
<path d="M6.66666 18.3333H12.6667" stroke="white" stroke-width="1.5" stroke-miterlimit="10" stroke-linecap="round" stroke-linejoin="round"/>
<path d="M9.66667 15.3333V18.3332" stroke="white" stroke-width="1.5" stroke-miterlimit="10" stroke-linecap="round" stroke-linejoin="round"/>
<path d="M15.9129 6.04167H15.9204" stroke="white" stroke-width="1.5" stroke-linecap="round" stroke-linejoin="round"/>
<path d="M13.5797 6.04167H13.5872" stroke="white" stroke-width="1.5" stroke-linecap="round" stroke-linejoin="round"/>
<path d="M11.2462 6.04167H11.2537" stroke="white" stroke-width="1.5" stroke-linecap="round" stroke-linejoin="round"/>
</svg>
