<svg width="22" height="37" viewBox="0 0 22 37" fill="none" xmlns="http://www.w3.org/2000/svg">
<path d="M5.03774 12.072C4.07681 12.3532 3.31743 13.1267 3.06899 14.0782C2.97524 14.4298 2.97993 15.1704 3.06899 15.522C3.18149 15.9532 3.40649 16.361 3.71587 16.6985C3.95493 16.961 4.45181 17.3079 6.94556 18.972C8.56743 20.0548 10.0112 21.0017 10.1612 21.0767C10.5549 21.2782 10.9252 21.3579 11.4362 21.3579C11.9471 21.3579 12.3174 21.2782 12.7112 21.0767C12.8612 21.0017 14.3049 20.0548 15.9268 18.972C18.4206 17.3079 18.9174 16.961 19.1565 16.6985C19.4659 16.361 19.6909 15.9532 19.8034 15.522C19.8971 15.161 19.8924 14.4438 19.7987 14.0782C19.5456 13.1032 18.7534 12.311 17.7784 12.0579C17.5252 11.9923 16.794 11.9829 11.4081 11.9876C5.75024 11.9876 5.30024 11.997 5.03774 12.072ZM17.4596 13.9798C17.7924 14.1626 17.9518 14.4251 17.9518 14.8048C17.9518 15.3017 18.0409 15.2267 14.9518 17.2938C13.419 18.3204 12.0596 19.2204 11.9284 19.3001C11.7456 19.4032 11.6377 19.436 11.4362 19.436C11.2346 19.436 11.1268 19.4032 10.944 19.3001C10.8174 19.2204 9.45337 18.3204 7.92056 17.2938C4.83149 15.2267 4.92056 15.3017 4.92056 14.8048C4.92056 14.3313 5.19243 13.9985 5.67056 13.9001C5.75962 13.8813 8.40806 13.872 11.5534 13.8767L17.2721 13.8813L17.4596 13.9798Z" fill="#5AA02C"/>
<path d="M18.5141 19.4452C18.4016 19.5061 18.2422 19.6327 18.1672 19.7311L18.0219 19.9139L17.9938 21.7233C17.9656 23.7155 17.9516 23.7999 17.6656 24.2311C17.361 24.6905 16.9016 24.9764 16.3344 25.0608C15.8938 25.1217 6.98283 25.1217 6.53751 25.0608C6.35939 25.0327 6.0922 24.9577 5.95158 24.8874C5.61408 24.7233 5.2297 24.3342 5.07033 23.9967L4.94376 23.7249L4.92033 21.9202C4.89689 19.9514 4.90158 19.9842 4.60626 19.7077C4.42814 19.5389 4.26408 19.4827 3.94533 19.4827C3.61251 19.4827 3.36408 19.6186 3.16251 19.8952L3.02189 20.1014L3.00783 21.9296C2.99376 23.6452 2.99845 23.7811 3.0922 24.1421C3.43439 25.5014 4.47501 26.5421 5.8297 26.8889C6.19064 26.978 6.34533 26.9827 11.436 26.9827C17.3938 26.9827 16.986 27.0061 17.8578 26.5749C18.2375 26.3874 18.3688 26.2842 18.7719 25.8811C19.175 25.478 19.2781 25.3467 19.4656 24.9671C19.8641 24.1655 19.8781 24.0577 19.8641 21.8358L19.85 19.9139L19.7047 19.7311C19.5219 19.4967 19.2125 19.3421 18.936 19.3421C18.8047 19.3421 18.6406 19.3842 18.5141 19.4452Z" fill="#5AA02C"/>
</svg>
