<svg width="42" height="42" viewBox="0 0 42 42" fill="none" xmlns="http://www.w3.org/2000/svg">
<path fill-rule="evenodd" clip-rule="evenodd" d="M21 0C9.40202 0 0 9.40202 0 21C0 32.598 9.40202 42 21 42C32.598 42 42 32.598 42 21C42 9.40202 32.598 0 21 0ZM29.7514 13.7807C30.7152 14.0452 31.4743 14.8244 31.7319 15.8141C32.2 17.6077 32.2 21.35 32.2 21.35C32.2 21.35 32.2 25.0922 31.7319 26.8859C31.4743 27.8756 30.7152 28.6549 29.7514 28.9195C28.0047 29.4 21 29.4 21 29.4C21 29.4 13.9953 29.4 12.2485 28.9195C11.2846 28.6549 10.5256 27.8756 10.268 26.8859C9.80001 25.0922 9.80001 21.35 9.80001 21.35C9.80001 21.35 9.80001 17.6077 10.268 15.8141C10.5256 14.8244 11.2846 14.0452 12.2485 13.7807C13.9953 13.3 21 13.3 21 13.3C21 13.3 28.0047 13.3 29.7514 13.7807Z" fill="white"/>
<path d="M18.9 25.2V18.2L24.5 21.7001L18.9 25.2Z" fill="white"/>
</svg>
