<svg width="42" height="42" viewBox="0 0 42 42" fill="none" xmlns="http://www.w3.org/2000/svg">
<path fill-rule="evenodd" clip-rule="evenodd" d="M0 21C0 32.598 9.40202 42 21 42C32.598 42 42 32.598 42 21C42 9.40202 32.598 0 21 0C9.40202 0 0 9.40202 0 21ZM34.1794 20.1963C34.1766 27.0797 28.5771 32.6806 21.6922 32.6835H21.687C19.5971 32.6827 17.5436 32.1584 15.7197 31.1635L9.1 32.9L10.8715 26.4292C9.77877 24.5355 9.20376 22.3873 9.20469 20.1865C9.20743 13.3015 14.8092 7.7 21.6921 7.7C25.0326 7.70144 28.1678 9.00188 30.5254 11.3622C32.883 13.7225 34.1807 16.8598 34.1794 20.1963Z" fill="white"/>
<path fill-rule="evenodd" clip-rule="evenodd" d="M12.0982 29.9334L16.0264 28.9029L16.4054 29.1278C17.9989 30.0735 19.8256 30.5738 21.688 30.5745H21.6922C27.4127 30.5745 32.0687 25.9185 32.071 20.1956C32.072 17.4223 30.9935 14.8147 29.034 12.8529C27.0744 10.891 24.4685 9.81009 21.6963 9.80913C15.9713 9.80913 11.3153 14.4647 11.313 20.1872C11.3122 22.1483 11.861 24.0582 12.8999 25.7107L13.1467 26.1034L12.0982 29.9334ZM27.5559 22.8848C27.7735 22.99 27.9204 23.061 27.9832 23.1657C28.0612 23.2958 28.0612 23.9205 27.8013 24.6495C27.5412 25.3783 26.2947 26.0435 25.6952 26.133C25.1576 26.2134 24.4774 26.2469 23.73 26.0094C23.2768 25.8656 22.6956 25.6736 21.9512 25.3521C19.0261 24.0891 17.0494 21.2541 16.6758 20.7183C16.6496 20.6807 16.6313 20.6545 16.6211 20.6409L16.6186 20.6375C16.4535 20.4172 15.3471 18.941 15.3471 17.4132C15.3471 15.976 16.0531 15.2226 16.378 14.8759C16.4003 14.8521 16.4208 14.8303 16.4391 14.8103C16.7251 14.4979 17.0631 14.4198 17.2711 14.4198C17.4791 14.4198 17.6874 14.4217 17.8691 14.4308C17.8916 14.432 17.9149 14.4318 17.939 14.4317C18.1209 14.4306 18.3475 14.4293 18.5712 14.9664C18.6572 15.1731 18.7831 15.4796 18.9158 15.8028C19.1843 16.4564 19.481 17.1787 19.5332 17.2832C19.6112 17.4394 19.6632 17.6215 19.5592 17.8298C19.5436 17.8611 19.5291 17.8905 19.5153 17.9187C19.4372 18.0782 19.3797 18.1955 19.2472 18.3503C19.195 18.4112 19.1411 18.4768 19.0873 18.5424C18.9799 18.6731 18.8726 18.8038 18.7791 18.897C18.6229 19.0525 18.4603 19.2213 18.6423 19.5337C18.8243 19.8461 19.4505 20.8678 20.3781 21.6952C21.3752 22.5845 22.2418 22.9604 22.681 23.151C22.7668 23.1882 22.8363 23.2183 22.8873 23.2438C23.1992 23.4001 23.3812 23.3739 23.5632 23.1657C23.7452 22.9575 24.3432 22.2546 24.5511 21.9423C24.7591 21.6301 24.9672 21.6821 25.2531 21.7861C25.5392 21.8904 27.0732 22.6451 27.3852 22.8013C27.4461 22.8318 27.5031 22.8593 27.5559 22.8848Z" fill="white"/>
</svg>
