<svg width="42" height="42" viewBox="0 0 42 42" fill="none" xmlns="http://www.w3.org/2000/svg">
<path fill-rule="evenodd" clip-rule="evenodd" d="M21 42C32.598 42 42 32.598 42 21C42 9.40202 32.598 0 21 0C9.40202 0 0 9.40202 0 21C0 32.598 9.40202 42 21 42ZM31.0927 14.8984C31.8397 14.8984 32.0083 15.272 31.8397 15.7858C31.5764 16.9633 29.3907 20.0868 28.7137 21.0543C28.585 21.2381 28.5108 21.3441 28.5147 21.3441C28.2496 21.7645 28.1533 21.9513 28.5147 22.4184C28.6453 22.5911 28.9224 22.8546 29.239 23.1557C29.5646 23.4655 29.9322 23.815 30.2254 24.1466C31.2855 25.3143 32.1047 26.2952 32.3215 26.9724C32.5143 27.6497 32.177 28 31.4541 28H28.9725C28.3148 28 27.9758 27.6339 27.2533 26.8537C26.9435 26.5192 26.5632 26.1085 26.0571 25.6179C24.5874 24.24 23.9368 24.0532 23.5754 24.0532C23.0694 24.0532 22.9249 24.1699 22.9249 24.8706V27.0425C22.9249 27.6263 22.7321 27.9766 21.1419 27.9766C18.5157 27.9766 15.6003 26.4353 13.5523 23.5627C10.4683 19.359 9.625 16.1828 9.625 15.5523C9.625 15.202 9.74547 14.875 10.4683 14.875H12.9741C13.6005 14.875 13.8414 15.1319 14.0824 15.8092C15.3112 19.2422 17.3592 22.2549 18.2025 22.2549C18.5157 22.2549 18.6602 22.1148 18.6602 21.3441V17.7943C18.6008 16.7853 18.2384 16.3456 17.9697 16.0196C17.803 15.8175 17.6724 15.659 17.6724 15.4355C17.6724 15.1552 17.9133 14.875 18.2988 14.875H22.2021C22.7321 14.875 22.9249 15.1552 22.9249 15.7625V20.55C22.9249 21.0638 23.1417 21.2507 23.3104 21.2507C23.6236 21.2507 23.8886 21.0638 24.4669 20.5033C26.2498 18.5649 27.5268 15.5756 27.5268 15.5756C27.6955 15.2253 27.9846 14.8984 28.6111 14.8984H31.0927Z" fill="white"/>
</svg>
