<svg width="22" height="37" viewBox="0 0 22 37" fill="none" xmlns="http://www.w3.org/2000/svg">
<path fill-rule="evenodd" clip-rule="evenodd" d="M11.0004 8.98633C8.8787 8.98633 6.84386 9.82918 5.34357 11.3295C3.84328 12.8298 3.00043 14.8646 3.00043 16.9863C3.00043 20.0844 5.01616 23.0906 7.22638 25.4236C8.31104 26.5685 9.3991 27.5058 10.2171 28.1572C10.5215 28.3996 10.7874 28.6015 11.0004 28.7589C11.2134 28.6015 11.4793 28.3996 11.7838 28.1572C12.6018 27.5058 13.6898 26.5685 14.7745 25.4236C16.9847 23.0906 19.0004 20.0844 19.0004 16.9863C19.0004 14.8646 18.1576 12.8298 16.6573 11.3295C15.157 9.82918 13.1222 8.98633 11.0004 8.98633ZM11.0004 29.9863C10.4457 30.8184 10.4452 30.818 10.4452 30.818L10.4423 30.8161L10.4357 30.8116L10.4127 30.7961C10.3933 30.7829 10.3655 30.7639 10.33 30.7393C10.259 30.6901 10.1569 30.6185 10.0282 30.5255C9.77097 30.3397 9.40679 30.0686 8.97125 29.7217C8.10176 29.0294 6.93982 28.0292 5.77447 26.7991C3.48469 24.3821 1.00043 20.8883 1.00043 16.9863C1.00043 14.3342 2.054 11.7906 3.92936 9.91526C5.80472 8.0399 8.34826 6.98633 11.0004 6.98633C13.6526 6.98633 16.1961 8.0399 18.0715 9.91526C19.9469 11.7906 21.0004 14.3342 21.0004 16.9863C21.0004 20.8883 18.5162 24.3821 16.2264 26.7991C15.061 28.0292 13.8991 29.0294 13.0296 29.7217C12.5941 30.0686 12.2299 30.3397 11.9726 30.5255C11.844 30.6185 11.7419 30.6901 11.6709 30.7393C11.6354 30.7639 11.6076 30.7829 11.5881 30.7961L11.5652 30.8116L11.5585 30.8161L11.5564 30.8175C11.5564 30.8175 11.5551 30.8184 11.0004 29.9863ZM11.0004 29.9863L11.5551 30.8184C11.2192 31.0423 10.7811 31.042 10.4452 30.818L11.0004 29.9863Z" fill="#5AA02C"/>
<path fill-rule="evenodd" clip-rule="evenodd" d="M11.0004 14.9863C9.89586 14.9863 9.00043 15.8818 9.00043 16.9863C9.00043 18.0909 9.89586 18.9863 11.0004 18.9863C12.105 18.9863 13.0004 18.0909 13.0004 16.9863C13.0004 15.8818 12.105 14.9863 11.0004 14.9863ZM7.00043 16.9863C7.00043 14.7772 8.79129 12.9863 11.0004 12.9863C13.2096 12.9863 15.0004 14.7772 15.0004 16.9863C15.0004 19.1955 13.2096 20.9863 11.0004 20.9863C8.79129 20.9863 7.00043 19.1955 7.00043 16.9863Z" fill="#5AA02C"/>
</svg>
