<svg width="21" height="20" viewBox="0 0 21 20" fill="none" xmlns="http://www.w3.org/2000/svg">
<g clip-path="url(#clip0_2021_107)">
<path d="M3.48828 0.0585925C3.17969 0.14453 2.77734 0.36328 2.53906 0.574218C2.23828 0.843749 0.636719 2.99609 0.476562 3.34375C0.273438 3.78906 0.195312 4.16406 0.195312 4.6875C0.195312 5.25781 0.28125 5.625 0.535156 6.12891C0.742188 6.54297 1.17578 7.03906 1.54297 7.28516L1.75781 7.42578V8.75781V10.0898L1.85547 10.2578C2 10.5039 2.22656 10.625 2.53906 10.625C2.85156 10.625 3.07812 10.5039 3.22266 10.2578L3.32031 10.0898V8.95312V7.8125H3.54688C4.10156 7.8125 4.91797 7.47656 5.36328 7.06641L5.61328 6.83984L5.70703 6.94141C5.87109 7.11719 6.29688 7.42187 6.55078 7.54297C7.12891 7.82031 7.96875 7.89844 8.61719 7.73437C9.07422 7.62109 9.59766 7.34375 9.92188 7.04297L10.1953 6.78906L10.4688 7.04297C10.793 7.34375 11.3164 7.62109 11.7734 7.73437C12.4219 7.89844 13.2617 7.82031 13.8398 7.54297C14.0938 7.42187 14.5195 7.11719 14.6836 6.94141L14.7773 6.83984L15.0273 7.06641C15.4727 7.47656 16.2891 7.8125 16.8438 7.8125H17.0703V8.95312V10.0898L17.168 10.2578C17.3125 10.5039 17.5391 10.625 17.8516 10.625C18.1641 10.625 18.3906 10.5039 18.5352 10.2578L18.6328 10.0898V8.75781V7.42578L18.8594 7.26953C19.2383 7.01172 19.6484 6.54297 19.8594 6.125C20.1094 5.625 20.1953 5.25781 20.1953 4.6875C20.1953 4.16406 20.1172 3.78906 19.9141 3.34375C19.7539 2.99609 18.1523 0.843749 17.8516 0.574218C17.6094 0.355468 17.2109 0.140624 16.8867 0.0585925C16.5625 -0.027345 3.80078 -0.0234388 3.48828 0.0585925ZM16.6328 1.67187C16.7695 1.74609 16.9492 1.95703 17.6133 2.84766C18.0938 3.48828 18.457 4.01172 18.5 4.125C18.5547 4.26562 18.5742 4.41797 18.5742 4.70703C18.5742 5.05078 18.5625 5.125 18.4688 5.32422C18.332 5.61328 17.9961 5.94922 17.707 6.08594C17.5039 6.17969 17.4336 6.19141 17.0703 6.19141C16.707 6.19141 16.6367 6.17969 16.4336 6.08594C16.1484 5.95312 15.8086 5.61328 15.6797 5.33594C15.625 5.21094 15.5664 4.98437 15.543 4.78125C15.4648 4.16797 15.2188 3.90625 14.7266 3.90625C14.25 3.90625 13.9766 4.18359 13.9258 4.70703C13.8711 5.31641 13.6523 5.74609 13.2656 6.00391C13.0156 6.17578 12.8164 6.22266 12.4414 6.20312C12.0352 6.18359 11.7539 6.05469 11.4609 5.76562C11.1875 5.48828 11.0664 5.22266 11.0117 4.78125C10.9336 4.16797 10.6875 3.90625 10.1953 3.90625C9.70312 3.90625 9.45703 4.16797 9.37891 4.78125C9.32422 5.22266 9.20312 5.48828 8.92969 5.76562C8.63672 6.05469 8.35547 6.18359 7.94922 6.20312C7.57422 6.22266 7.375 6.17578 7.125 6.00391C6.73828 5.74609 6.51953 5.31641 6.46484 4.70703C6.41406 4.18359 6.14062 3.90625 5.66406 3.90625C5.17188 3.90625 4.92578 4.16797 4.84766 4.78125C4.82422 4.98437 4.76562 5.21094 4.71094 5.33594C4.58203 5.61328 4.24219 5.95312 3.95703 6.08594C3.75391 6.17969 3.68359 6.19141 3.32031 6.19141C2.95703 6.19141 2.88672 6.17969 2.68359 6.08594C2.39062 5.94922 2.05859 5.61328 1.92578 5.32422C1.84375 5.14453 1.81641 5.02344 1.80469 4.74609C1.78125 4.20312 1.82422 4.11719 2.77734 2.84766C3.60938 1.73828 3.68359 1.66016 3.98438 1.59766C4.05859 1.58203 6.89844 1.57422 10.293 1.57812L16.4648 1.58203L16.6328 1.67187Z" fill="white"/>
<path d="M1.89453 12.2617C1.09375 12.4961 0.460939 13.1406 0.253908 13.9336C0.164064 14.2734 0.16797 17.9102 0.257814 18.2539C0.464845 19.0586 1.13672 19.7305 1.9375 19.9375C2.15625 19.9922 3.00391 20 10.1953 20C17.3516 20 18.2383 19.9922 18.4492 19.9375C19.2617 19.7266 19.9219 19.0664 20.1328 18.2539C20.2266 17.9023 20.2266 14.2852 20.1328 13.9336C19.9219 13.1211 19.2617 12.4609 18.4492 12.25C18.2383 12.1953 17.3555 12.1875 10.1719 12.1914C2.62891 12.1914 2.11328 12.1992 1.89453 12.2617ZM18.1836 13.8516C18.3633 13.9492 18.4375 14.0273 18.5391 14.2187C18.6094 14.3477 18.6133 14.4687 18.6133 16.0937C18.6133 17.7187 18.6094 17.8398 18.5391 17.9687C18.4375 18.1602 18.3633 18.2383 18.1836 18.3359L18.0273 18.418H10.1953C2.61719 18.418 2.35938 18.4141 2.22656 18.3437C2.03516 18.2422 1.95703 18.168 1.85938 17.9883C1.77735 17.8359 1.77735 17.7969 1.77735 16.0937C1.77735 14.4687 1.78125 14.3477 1.85156 14.2187C1.98828 13.9609 2.14453 13.8437 2.42188 13.7852C2.4961 13.7695 6.03906 13.7617 10.293 13.7656L18.0273 13.7695L18.1836 13.8516Z" fill="white"/>
<path d="M8.21484 15.4141C7.97266 15.5586 7.85156 15.7852 7.85156 16.0938C7.85156 16.4062 7.97266 16.6328 8.21875 16.7773L8.38672 16.875H10.1953H12.0039L12.1719 16.7773C12.418 16.6328 12.5391 16.4062 12.5391 16.0938C12.5391 15.7812 12.418 15.5547 12.1719 15.4102L12.0039 15.3125H10.1914H8.37891L8.21484 15.4141Z" fill="white"/>
</g>
<defs>
<clipPath id="clip0_2021_107">
<rect width="20" height="20" fill="white" transform="translate(0.195312)"/>
</clipPath>
</defs>
</svg>
