<svg width="21" height="21" viewBox="0 0 21 21" fill="none" xmlns="http://www.w3.org/2000/svg">
<path d="M12.1275 0.544504C10.4247 0.802751 8.8471 1.67923 7.78234 2.95872C7.47309 3.32653 7.39089 3.54565 7.45743 3.84694C7.55921 4.32039 8.09159 4.60211 8.53394 4.41821C8.62006 4.383 8.9019 4.13257 9.23072 3.79998C9.81399 3.20523 10.1467 2.95481 10.7261 2.66135C11.4933 2.27398 12.2802 2.09007 13.1688 2.09007C14.2844 2.09007 15.2748 2.39136 16.2143 3.01742C16.6331 3.29523 17.2125 3.84694 17.5374 4.27735C18.0306 4.93079 18.4182 5.8464 18.5552 6.66027C18.6335 7.15328 18.6139 8.20584 18.5121 8.64407C18.2342 9.8727 17.6353 10.8744 16.6801 11.7C16.3474 11.9856 16.273 12.0991 16.2378 12.3495C16.1595 12.9286 16.6958 13.3943 17.2516 13.226C17.6979 13.093 18.657 12.1069 19.1972 11.2265C19.6121 10.5496 19.937 9.71228 20.1053 8.89058C20.1836 8.4993 20.1954 8.33887 20.1954 7.50935C20.1915 6.68374 20.1836 6.52332 20.1053 6.16334C19.8626 5.04818 19.4634 4.16388 18.8135 3.2874C17.7723 1.89052 16.1947 0.912311 14.4332 0.57972C13.9634 0.493637 12.6129 0.47016 12.1275 0.544504Z" fill="#5AA02C"/>
<path d="M3.44105 3.26005C2.92433 3.41265 2.74817 3.53786 1.91829 4.35564C1.4916 4.77823 1.05709 5.23212 0.955307 5.36907C0.700862 5.70166 0.434672 6.22598 0.305492 6.65248C0.203714 6.97724 0.195885 7.04767 0.195885 7.72459C0.19197 8.29195 0.207629 8.49933 0.258518 8.69106C0.383783 9.14886 0.563852 9.55189 0.80264 9.91969C1.02185 10.2523 1.50726 10.7492 5.72714 14.9673C10.7495 19.9874 10.6673 19.9092 11.3563 20.2026C11.9434 20.453 12.1822 20.5 12.9338 20.5C13.7481 20.5 14.0495 20.4374 14.6758 20.1283C15.2199 19.8622 15.4626 19.6627 16.3434 18.7705C17.0167 18.0897 17.1263 17.9606 17.2516 17.7023C17.4434 17.311 17.5138 17.0137 17.5138 16.6067C17.5138 16.1841 17.4316 15.8476 17.2516 15.4955C17.1263 15.249 16.9541 15.0612 15.7171 13.8247C14.437 12.5452 14.3 12.42 14.0416 12.2909C13.153 11.8565 12.1548 11.97 11.3915 12.6C11.2584 12.7095 11.0901 12.8308 11.0235 12.8661C10.8709 12.9443 10.6242 12.9482 10.4363 12.87C10.2563 12.7956 7.95452 10.5144 7.841 10.2992C7.75879 10.1427 7.74313 9.86491 7.80577 9.70057C7.82925 9.64188 7.95061 9.46972 8.07587 9.31712C8.62782 8.65193 8.80006 7.81067 8.55345 7.02028C8.39686 6.51944 8.2716 6.36684 6.83104 4.93865C5.36309 3.47917 5.2574 3.39308 4.68979 3.24831C4.36488 3.16614 3.74638 3.17005 3.44105 3.26005ZM4.48232 4.90344C4.75242 5.07952 6.92891 7.28636 7.00328 7.45852C7.13246 7.77155 7.05809 8.03371 6.74884 8.38195C6.36913 8.80453 6.16166 9.36798 6.16166 9.96665C6.16166 10.3658 6.23212 10.6788 6.40827 11.0466C6.51788 11.2774 6.67838 11.4535 7.93886 12.7213C9.34418 14.1299 9.35593 14.1377 9.68475 14.2942C10.084 14.4781 10.3307 14.5329 10.7338 14.5329C11.3054 14.5329 11.826 14.3451 12.2488 13.9851C12.6598 13.6408 12.9221 13.5625 13.2392 13.6917C13.4349 13.7738 15.7249 16.055 15.8306 16.2781C15.9324 16.4815 15.9285 16.7359 15.8306 16.9393C15.7288 17.1506 14.5153 18.3479 14.1904 18.5553C13.8303 18.7901 13.5328 18.8801 13.0513 18.9036C12.5659 18.927 12.2801 18.8644 11.8573 18.6531C11.6029 18.5201 11.2388 18.168 6.88193 13.813C2.52504 9.45798 2.17273 9.09408 2.03964 8.83975C1.82825 8.42499 1.76562 8.13153 1.78519 7.64634C1.80476 7.19245 1.87914 6.92637 2.09836 6.55466C2.25102 6.29641 3.44105 5.06386 3.69158 4.90344C3.93819 4.74301 4.2357 4.74301 4.48232 4.90344Z" fill="#5AA02C"/>
<path d="M12.781 3.70213C12.6714 3.75691 12.5696 3.84691 12.4992 3.96429L12.3857 4.14037V5.95984V7.77539L12.4835 7.94365C12.5462 8.04929 12.6558 8.15494 12.7693 8.22146L12.9533 8.33102H13.9515H14.9497L15.1337 8.22146C15.3999 8.06886 15.5173 7.84974 15.5173 7.52497C15.5173 7.30977 15.4977 7.23934 15.4038 7.09065C15.2237 6.80892 15.0515 6.74632 14.4486 6.74632H13.9515V5.44334V4.14037L13.838 3.96038C13.6305 3.6317 13.1568 3.51432 12.781 3.70213Z" fill="#5AA02C"/>
</svg>
