<svg width="21" height="20" viewBox="0 0 21 20" fill="none" xmlns="http://www.w3.org/2000/svg">
<g clip-path="url(#clip0_2021_1676)">
<path d="M9.34375 0.0546851C8.71875 0.175779 8.08984 0.425779 7.61719 0.746091C7.47656 0.839841 6.10938 1.875 4.57812 3.04297C1.53125 5.36719 1.32422 5.54687 0.890625 6.25C0.613281 6.69922 0.382812 7.28125 0.277344 7.80078C0.199219 8.18359 0.195312 8.30859 0.195312 12.0312C0.195312 15.75 0.199219 15.8789 0.277344 16.2617C0.65625 18.1328 2.17578 19.6133 4.05859 19.9414C4.27734 19.9805 4.66406 20 5.23438 20C5.97266 20 6.11719 19.9883 6.33594 19.9219C6.78906 19.7812 7.19922 19.457 7.4375 19.0547C7.68359 18.6367 7.67188 18.7578 7.69922 16.1133C7.72656 13.4023 7.71875 13.4648 8.01172 12.8555C8.40625 12.0469 9.27344 11.5234 10.2344 11.5234C11.1914 11.5234 12.0664 12.0469 12.457 12.8555C12.75 13.4648 12.7422 13.4023 12.7695 16.1133C12.7969 18.7578 12.7852 18.6367 13.0312 19.0547C13.2695 19.457 13.6797 19.7812 14.1328 19.9219C14.3477 19.9883 14.4961 20 15.1953 20C16.082 20 16.4805 19.9492 16.9883 19.7812C17.6914 19.5469 18.2891 19.1719 18.8281 18.6328C19.3672 18.0937 19.7422 17.4961 19.9766 16.793C20.1953 16.1406 20.1953 16.1367 20.1953 12.0039C20.1953 8.30859 20.1914 8.18359 20.1133 7.80078C20.0078 7.28125 19.7773 6.69922 19.5 6.25C19.0625 5.54687 18.8594 5.36719 15.8125 3.03906C14.2812 1.875 12.8906 0.828123 12.7227 0.714841C12.3516 0.472654 11.8672 0.261716 11.3672 0.128904C11.0547 0.0429664 10.8906 0.0273414 10.3125 0.0156226C9.84375 0.00781012 9.53906 0.0195289 9.34375 0.0546851ZM10.8711 1.66406C11.5117 1.80469 11.7148 1.9414 14.6484 4.17969C16.1406 5.32031 17.4531 6.33203 17.5664 6.42969C17.957 6.76562 18.3164 7.32812 18.4805 7.85937C18.6211 8.32031 18.6367 8.86719 18.625 12.3633C18.6094 15.6875 18.6094 15.7266 18.5234 16.0352C18.2031 17.1914 17.3594 18.0352 16.2344 18.3203C15.9844 18.3828 15.8008 18.3984 15.2578 18.3984C14.793 18.3945 14.5703 18.3828 14.5312 18.3477C14.3477 18.1992 14.3555 18.2969 14.3359 15.707L14.3125 13.2617L14.207 12.9102C13.6133 10.9492 11.8984 9.77734 9.85547 9.92969C9.13281 9.98437 8.34766 10.2852 7.73828 10.7461C7.03516 11.2734 6.54297 12 6.26172 12.9102L6.15625 13.2617L6.13281 15.707C6.11328 18.2969 6.12109 18.1992 5.9375 18.3477C5.89453 18.3828 5.66797 18.3945 5.17188 18.3984C4.58984 18.3984 4.41016 18.3828 4.15625 18.3203C3.23828 18.0859 2.48438 17.4687 2.08594 16.6211C1.76953 15.9492 1.78516 16.1406 1.76953 12.3633C1.75391 8.85547 1.76953 8.33594 1.91406 7.85937C2.07422 7.32031 2.44531 6.74609 2.85547 6.40234C3.19922 6.11328 8.35156 2.1914 8.57031 2.05469C8.83594 1.88672 9.14062 1.75781 9.47266 1.67578C9.82812 1.58594 10.4961 1.58203 10.8711 1.66406Z" fill="white"/>
<path d="M7.79297 6.79297C7.375 6.86719 7.14844 7.14844 7.14844 7.58594C7.15234 7.87109 7.26172 8.09375 7.46484 8.23047L7.63281 8.33984L10.207 8.35156C12.7734 8.35937 12.7852 8.35937 12.957 8.27734C13.1953 8.16406 13.332 7.94922 13.3516 7.65625C13.3789 7.27734 13.2539 7.02344 12.957 6.86328L12.793 6.77734L10.3711 6.77344C9.03906 6.76953 7.87891 6.77734 7.79297 6.79297Z" fill="white"/>
</g>
<defs>
<clipPath id="clip0_2021_1676">
<rect width="20" height="20" fill="white" transform="translate(0.195312)"/>
</clipPath>
</defs>
</svg>
