<svg width="21" height="20" viewBox="0 0 21 20" fill="none" xmlns="http://www.w3.org/2000/svg">
<path d="M9.58984 0.0585938C9.20703 0.164062 1.43359 3.36328 1.22266 3.50391C0.773438 3.80078 0.394531 4.33594 0.253906 4.86328C0.167969 5.19531 0.167969 6.99219 0.253906 7.32031C0.414062 7.93359 0.890625 8.52344 1.45312 8.8125L1.75781 8.96484V13.4922C1.75781 18.5117 1.74219 18.2148 2.01953 18.7656C2.11328 18.9531 2.25 19.1328 2.4375 19.3164C2.89453 19.7695 3.4375 20 4.04688 20C4.30078 20 4.375 19.9844 4.51562 19.9023C4.76172 19.7578 4.88281 19.5312 4.88281 19.2188C4.88281 18.7617 4.60938 18.4766 4.12109 18.418C3.75781 18.375 3.57031 18.2578 3.42188 17.9883L3.33984 17.832L3.32812 13.4453L3.32031 9.0625H10.1953H17.0703L17.0625 13.4453L17.0508 17.832L16.9688 17.9883C16.8203 18.2578 16.6328 18.375 16.2695 18.418C15.7812 18.4766 15.5078 18.7617 15.5078 19.2188C15.5078 19.5312 15.6289 19.7578 15.875 19.9023C16.0156 19.9844 16.0898 20 16.3438 20C17.3789 20 18.3086 19.2734 18.5703 18.2539C18.625 18.043 18.6328 17.4766 18.6328 13.4922V8.96484L18.9375 8.8125C19.5 8.52344 19.9766 7.93359 20.1367 7.32031C20.1836 7.14453 20.1953 6.86328 20.1953 6.09375C20.1953 4.98828 20.1719 4.83203 19.9492 4.375C19.793 4.05078 19.293 3.54297 18.9844 3.39062C18.6016 3.20312 11.0039 0.113281 10.7812 0.0546875C10.5156 -0.015625 9.85156 -0.0117188 9.58984 0.0585938ZM14.3008 3.19922C16.4531 4.07812 18.2617 4.83203 18.3164 4.875C18.3711 4.91406 18.4609 5.02734 18.5156 5.12109C18.6094 5.28906 18.6133 5.3125 18.6133 6.09375C18.6133 6.83594 18.6055 6.90625 18.5312 7.05078C18.4336 7.23047 18.3555 7.30469 18.1641 7.40625C18.0312 7.47656 17.7734 7.48047 10.1953 7.48047C2.61719 7.48047 2.35938 7.47656 2.22656 7.40625C2.03516 7.30469 1.95703 7.23047 1.85938 7.05078C1.78516 6.90625 1.77734 6.83594 1.77734 6.09375C1.77734 5.3125 1.78125 5.28906 1.875 5.12109C1.92969 5.02734 2.01953 4.91406 2.07422 4.875C2.12891 4.83203 3.92969 4.08203 6.07812 3.20312C9.42578 1.83594 10.0078 1.60547 10.1836 1.60547C10.3633 1.60156 10.8203 1.77734 14.3008 3.19922Z" fill="white"/>
<path d="M8.21484 4.47656C7.97266 4.62109 7.85156 4.84766 7.85156 5.15625C7.85156 5.46875 7.97266 5.69531 8.21875 5.83984L8.38672 5.9375H10.1953H12.0039L12.1719 5.83984C12.418 5.69531 12.5391 5.46875 12.5391 5.15625C12.5391 4.84375 12.418 4.61719 12.1719 4.47266L12.0039 4.375H10.1914H8.37891L8.21484 4.47656Z" fill="white"/>
<path d="M8.59766 10.6875C8 10.8477 7.40234 11.3359 7.13281 11.8789C7.03906 12.0703 6.92188 12.4414 6.78516 12.9805L6.58203 13.7891L6.21094 13.9727C5.57422 14.2813 5.11328 14.8359 4.94141 15.4961C4.86719 15.7852 4.86719 16.4063 4.94141 16.6953C5.10156 17.3086 5.57812 17.8984 6.14062 18.1875L6.44531 18.3398V18.9023C6.44531 19.4336 6.44922 19.4766 6.54297 19.6328C6.6875 19.8789 6.91406 20 7.22656 20C7.53906 20 7.76562 19.8789 7.91016 19.6328C8 19.4766 8.00781 19.4297 8.00781 18.9531V18.4375H10.1953H12.3828V18.9531C12.3828 19.4297 12.3906 19.4766 12.4805 19.6328C12.625 19.8789 12.8516 20 13.1641 20C13.4766 20 13.7031 19.8789 13.8477 19.6328C13.9414 19.4766 13.9453 19.4336 13.9453 18.9023V18.3398L14.25 18.1875C14.8125 17.8984 15.2891 17.3086 15.4492 16.6953C15.5234 16.4063 15.5234 15.7852 15.4492 15.4961C15.2773 14.832 14.8047 14.2656 14.1758 13.9688L13.8125 13.793L13.6055 12.9805C13.3516 11.9727 13.2266 11.6992 12.8359 11.3086C12.5312 11.0039 12.1602 10.7852 11.7734 10.6836C11.4531 10.6016 8.91406 10.6016 8.59766 10.6875ZM11.2773 12.2227C11.4766 12.2617 11.6758 12.3906 11.7891 12.5547C11.832 12.6211 11.9297 12.918 12.0039 13.2109L12.1406 13.75H10.1953H8.25L8.38672 13.2109C8.46094 12.918 8.55859 12.6211 8.60156 12.5547C8.71094 12.3984 8.91406 12.2578 9.09375 12.2227C9.29688 12.1836 11.0781 12.1836 11.2773 12.2227ZM13.4961 15.4141C13.7734 15.5625 13.9062 15.7852 13.9062 16.0938C13.9062 16.4023 13.7734 16.625 13.4961 16.7734C13.3398 16.8555 13.3359 16.8555 10.1953 16.8555C7.05469 16.8555 7.05078 16.8555 6.89453 16.7734C6.61719 16.625 6.48438 16.4023 6.48438 16.0938C6.48438 15.707 6.71484 15.4297 7.10938 15.3477C7.18359 15.332 8.61719 15.3242 10.293 15.3242C13.3281 15.332 13.3398 15.332 13.4961 15.4141Z" fill="white"/>
</svg>
