<svg width="21" height="20" viewBox="0 0 21 20" fill="none" xmlns="http://www.w3.org/2000/svg">
<path d="M8.94531 0.0615151C6.26953 0.428277 3.43359 2.03703 1 4.57518C0.277344 5.32954 0.195312 5.45874 0.195312 5.8255C0.195312 6.3298 0.496094 6.66322 0.953125 6.66322C1.23828 6.66322 1.42188 6.57987 1.60938 6.36314L1.75781 6.19227V12.2605V18.3329H1.24219C0.765625 18.3329 0.71875 18.3412 0.5625 18.4371C0.316406 18.5913 0.195312 18.833 0.195312 19.1665C0.195312 19.4999 0.316406 19.7416 0.5625 19.8958L0.730469 20H2.51562C4.50391 20 4.54297 19.9958 5.05469 19.7208C5.42969 19.5207 5.83984 19.0831 6.02734 18.683C6.27734 18.1537 6.28906 18.0495 6.28906 16.4407V14.9987H9.14844H12.0039L12.1719 14.8945C12.418 14.7403 12.5391 14.4986 12.5391 14.1652C12.5391 13.8317 12.418 13.59 12.1719 13.4358L12.0039 13.3316H9.14844H6.28906V12.4981V11.6645H10.1953H14.1016V14.7736C14.1016 18.2245 14.0938 18.112 14.3633 18.683C14.5469 19.0706 14.957 19.5124 15.332 19.7166C15.8359 19.9958 15.8789 20 17.875 20H19.6602L19.8281 19.8958C20.0742 19.7416 20.1953 19.4999 20.1953 19.1665C20.1953 18.833 20.0742 18.5913 19.8281 18.4371C19.6719 18.3412 19.625 18.3329 19.1484 18.3329H18.6328V12.2563V6.18393L18.7617 6.33814C18.9609 6.58403 19.1211 6.66322 19.4102 6.66322C19.8945 6.66322 20.1953 6.3423 20.1953 5.8255C20.1953 5.45874 20.1133 5.32954 19.3906 4.57518C18.2812 3.41655 17.1406 2.49548 15.8398 1.69944C14.4414 0.845051 12.8672 0.261567 11.3945 0.0573474C10.8281 -0.0218397 9.52734 -0.017672 8.94531 0.0615151ZM10.8594 1.72444C12.0703 1.79946 13.5977 2.3371 15 3.17065C15.5195 3.48323 16.4219 4.1209 16.8281 4.46265L17.0703 4.67104V11.5061V18.3454L16.668 18.3246C16.1328 18.2954 15.9375 18.1912 15.7656 17.8536C15.6836 17.6869 15.6836 17.6827 15.6641 13.4983L15.6445 9.30974L15.5391 8.97632C15.2539 8.08859 14.707 7.40925 13.9648 7.01748C13.2852 6.65489 13.3789 6.66322 10.1953 6.66322C7.01172 6.66322 7.10547 6.65489 6.42578 7.01748C5.67578 7.41341 5.12109 8.1136 4.83984 9.018L4.74609 9.30974L4.72656 13.4983C4.70703 17.6827 4.70703 17.6869 4.625 17.8536C4.45312 18.1912 4.25781 18.2954 3.72266 18.3246L3.32031 18.3454V11.5061V4.67104L3.56641 4.46682C5.58203 2.77472 7.84375 1.78279 9.88281 1.6911C10.1367 1.6786 10.2344 1.68277 10.8594 1.72444ZM12.7148 8.372C13.0859 8.43034 13.3594 8.57622 13.6172 8.84712C13.8672 9.11385 14.0195 9.43894 14.0508 9.76819L14.0742 9.99742H10.1953H6.31641L6.33984 9.76819C6.37109 9.43894 6.52344 9.11385 6.77344 8.84712C7.02344 8.58455 7.3125 8.42618 7.64062 8.37616C7.97266 8.32615 12.3828 8.32198 12.7148 8.372Z" fill="white"/>
<path d="M9.77734 3.43739C9.53516 3.59159 9.41406 3.83332 9.41406 4.16258C9.41406 4.67521 9.71484 4.99612 10.1953 4.99612C10.6758 4.99612 10.9766 4.67521 10.9766 4.16258C10.9766 3.64994 10.6758 3.32903 10.1914 3.32903C9.99219 3.32903 9.90625 3.34987 9.77734 3.43739Z" fill="white"/>
</svg>
