<svg width="21" height="20" viewBox="0 0 21 20" fill="none" xmlns="http://www.w3.org/2000/svg">
<g clip-path="url(#clip0_2021_1784)">
<path d="M9.34375 0.0413513C8.71875 0.162445 8.08984 0.412445 7.61719 0.732758C7.47656 0.826508 6.10938 1.86166 4.58203 3.02573C1.53125 5.35385 1.32812 5.52963 0.890625 6.23666C0.613281 6.68588 0.382812 7.26791 0.277344 7.78745C0.199219 8.17026 0.195312 8.29526 0.195312 12.0179C0.195312 15.7367 0.199219 15.8656 0.277344 16.2484C0.65625 18.1195 2.17578 19.5999 4.05859 19.9281C4.54688 20.014 15.8438 20.014 16.332 19.9281C17.2812 19.764 18.125 19.3226 18.8281 18.6195C19.3672 18.0804 19.7422 17.4828 19.9766 16.7796C20.1953 16.1273 20.1953 16.1234 20.1953 11.9906C20.1953 8.29526 20.1914 8.17026 20.1133 7.78745C20.0078 7.26791 19.7773 6.68588 19.5 6.23666C19.0625 5.53354 18.8594 5.35385 15.8125 3.02573C14.2812 1.86166 12.8906 0.814789 12.7227 0.701508C12.3516 0.45932 11.8672 0.248383 11.3672 0.11557C11.0547 0.0296326 10.8906 0.0140076 10.3125 0.00228882C9.84375 -0.00552368 9.53906 0.00619507 9.34375 0.0413513ZM10.8711 1.65073C11.5117 1.79135 11.7148 1.92807 14.6484 4.16635C16.1406 5.30698 17.4531 6.3187 17.5664 6.41635C17.957 6.75229 18.3164 7.31479 18.4805 7.84604C18.6211 8.30698 18.6367 8.85385 18.625 12.3499C18.6094 15.6742 18.6094 15.7132 18.5234 16.0218C18.2031 17.1781 17.3594 18.0218 16.2344 18.307C15.9297 18.3851 15.8047 18.3851 10.1953 18.3851C4.58594 18.3851 4.46094 18.3851 4.15625 18.307C3.23828 18.0726 2.48438 17.4554 2.08594 16.6078C1.76953 15.9359 1.78516 16.1273 1.76953 12.3499C1.75391 8.85385 1.76953 8.31088 1.91016 7.84604C2.07422 7.31479 2.43359 6.75229 2.82422 6.41635C2.9375 6.3187 4.25 5.30698 5.74219 4.16635C8.63672 1.95541 8.84766 1.81479 9.45703 1.66635C9.82812 1.5726 10.4922 1.56479 10.8711 1.65073Z" fill="white"/>
<path d="M9.70703 3.22886C8.97656 3.38511 8.39062 3.83042 8.08594 4.46323C7.87891 4.89292 7.85156 5.09605 7.85156 6.27964V7.35386L7.96484 7.53355C8.03906 7.65073 8.13672 7.73667 8.25 7.79527C8.41797 7.8773 8.46484 7.8773 10.1953 7.8773C11.9258 7.8773 11.9727 7.8773 12.1406 7.79527C12.2539 7.73667 12.3516 7.65073 12.4258 7.53355L12.5391 7.35386V6.27964C12.5391 5.09605 12.5117 4.89292 12.3047 4.46323C12.0469 3.92808 11.5781 3.51792 11.0039 3.3187C10.6953 3.21323 10.0039 3.16245 9.70703 3.22886ZM10.5391 4.86558C10.8555 5.02573 10.9453 5.22495 10.9688 5.8148L10.9883 6.27573H10.1953H9.40234L9.42188 5.8148C9.44531 5.22105 9.53516 5.02964 9.86328 4.85777C10.0273 4.77183 10.3594 4.77573 10.5391 4.86558Z" fill="white"/>
<path d="M6.42578 9.51792C5.66406 9.61558 5.03125 10.1468 4.80469 10.8773C4.73047 11.1156 4.72656 11.2445 4.72656 13.8265C4.72656 16.4945 4.72656 16.5257 4.80859 16.6976C4.85938 16.7992 4.95703 16.9085 5.05078 16.971C5.1875 17.0609 5.25 17.0765 5.50391 17.0765H5.80078L8 15.8812L10.1953 14.682L12.3945 15.8812L14.5898 17.0765H14.8867C15.1406 17.0765 15.2031 17.0609 15.3398 16.971C15.4336 16.9085 15.5312 16.7992 15.582 16.6976C15.6641 16.5257 15.6641 16.4945 15.6641 13.8265C15.6641 11.2445 15.6602 11.1156 15.5859 10.8773C15.4414 10.4046 15.0625 9.9437 14.6484 9.73277C14.1641 9.48667 14.4023 9.5023 10.3516 9.49448C8.32031 9.49058 6.55469 9.5023 6.42578 9.51792ZM13.375 11.1117C13.3477 11.139 10.6562 12.6039 10.2812 12.7953C10.1992 12.8382 10.0469 12.7679 8.66016 12.014C7.81641 11.557 7.09375 11.1625 7.05078 11.1312C6.98828 11.0882 7.49609 11.0804 10.1953 11.0804C11.9648 11.0804 13.3984 11.096 13.375 11.1117ZM7.625 13.2875C8.09375 13.5375 8.46875 13.7601 8.45703 13.7757C8.4375 13.807 6.34766 14.9476 6.3125 14.9476C6.30078 14.9476 6.28906 14.4085 6.28906 13.7523V12.557L6.53516 12.6898C6.66797 12.764 7.16016 13.0335 7.625 13.2875ZM14.0859 14.9359C14.0664 14.9554 12.043 13.8695 11.9609 13.7953C11.9219 13.7601 12.1523 13.6195 12.9961 13.1625L14.082 12.5726L14.0938 13.7445C14.0977 14.3929 14.0938 14.9281 14.0859 14.9359Z" fill="white"/>
</g>
<defs>
<clipPath id="clip0_2021_1784">
<rect width="20" height="20" fill="white" transform="translate(0.195312)"/>
</clipPath>
</defs>
</svg>
