<svg width="21" height="20" viewBox="0 0 21 20" fill="none" xmlns="http://www.w3.org/2000/svg">
<g clip-path="url(#clip0_2021_1929)">
<path d="M3.35948 0.0859375C3.08995 0.191406 2.8087 0.464844 2.4337 0.996094C1.79698 1.89453 1.55089 2.46484 1.55479 3.03906C1.56261 3.6875 1.76964 4.19141 2.22667 4.65234C2.70714 5.13281 3.22667 5.35156 3.90636 5.35156C4.57433 5.35156 5.09776 5.13281 5.57042 4.66797C6.03136 4.21094 6.25011 3.67578 6.25011 3.02344C6.25011 2.44141 6.01183 1.89453 5.37511 0.996094C4.8087 0.195312 4.51573 0 3.89464 0.00390625C3.66808 0.00390625 3.51183 0.0273438 3.35948 0.0859375ZM4.1837 2.10547C4.63292 2.76172 4.72276 3.05859 4.57433 3.35156C4.44542 3.60547 4.20323 3.75 3.90636 3.75C3.37901 3.75 3.02745 3.26172 3.22276 2.79688C3.36339 2.46484 3.84776 1.74609 3.91808 1.76953C3.94151 1.77734 4.0587 1.92969 4.1837 2.10547Z" fill="white"/>
<path d="M9.60954 0.0859375C9.34001 0.191406 9.05876 0.464844 8.68376 0.996094C8.29704 1.53906 8.03923 2.01172 7.91423 2.39062C7.57048 3.42969 8.09392 4.625 9.10173 5.10938C9.49626 5.29688 9.73845 5.35156 10.1681 5.35156C10.8244 5.35156 11.3556 5.12891 11.8166 4.66797C12.2736 4.21094 12.5041 3.66406 12.5041 3.02734C12.5041 2.46094 12.2541 1.87891 11.6291 0.996094C11.0627 0.199219 10.7658 0 10.1447 0.00390625C9.91814 0.00390625 9.76189 0.0273438 9.60954 0.0859375ZM10.4338 2.10547C10.883 2.76562 10.9728 3.05859 10.8244 3.35156C10.6955 3.60547 10.4533 3.75 10.1564 3.75C9.85954 3.75 9.61735 3.60547 9.48845 3.35156C9.38298 3.14453 9.3947 2.95703 9.53142 2.69141C9.76189 2.23828 10.1017 1.74609 10.172 1.76953C10.1955 1.77734 10.3127 1.92969 10.4338 2.10547Z" fill="white"/>
<path d="M15.8594 0.0859375C15.5937 0.1875 15.3125 0.464844 14.9375 0.996094C14.3008 1.89453 14.0625 2.44141 14.0625 3.02344C14.0625 3.67969 14.2812 4.20703 14.75 4.67578C14.9648 4.88672 15.1094 4.99219 15.3594 5.10938C15.7461 5.29688 15.9883 5.35156 16.418 5.35156C17.0742 5.35156 17.6055 5.13281 18.0703 4.66797C18.6875 4.05859 18.9141 3.17188 18.6562 2.39062C18.5352 2.02344 18.2617 1.53516 17.8789 0.996094C17.3125 0.199219 17.0156 0 16.3945 0.00390625C16.168 0.00390625 16.0117 0.0273438 15.8594 0.0859375ZM16.6875 2.11328C16.9844 2.54688 17.1484 2.88672 17.1484 3.0625C17.1484 3.21875 17.043 3.45703 16.9258 3.5625C16.6602 3.80469 16.1523 3.80469 15.8867 3.5625C15.7695 3.45703 15.6641 3.21875 15.6641 3.05859C15.6641 2.81641 16.3008 1.73047 16.4219 1.76953C16.4453 1.77734 16.5664 1.92969 16.6875 2.11328Z" fill="white"/>
<path d="M12.7541 5.50388C12.3596 5.60154 12.1486 5.87107 12.1486 6.27341C12.1486 6.56247 12.2658 6.80857 12.4611 6.93747C12.5627 7.00388 12.7385 7.05857 13.0393 7.11325C13.2775 7.15232 13.5979 7.23435 13.7541 7.29294C14.3088 7.49607 14.9104 7.98044 15.2463 8.48826C15.426 8.75779 16.8908 11.9453 16.9807 12.2578C17.0588 12.5351 17.1018 14.8867 17.0393 15.3398C16.9377 16.0468 16.508 16.5273 15.801 16.7031C15.594 16.7539 15.4924 16.8086 15.3635 16.9258C15.1799 17.0976 15.1369 17.207 15.0979 17.5976C15.051 18.1054 14.7697 18.3984 14.3283 18.3984C14.0822 18.3984 13.9299 18.3164 13.7424 18.082C13.6447 17.9609 13.6174 17.8789 13.5861 17.6133C13.5393 17.2109 13.426 16.9961 13.1877 16.8554L13.0197 16.7578H10.1955H7.3713L7.20333 16.8554C6.96505 16.9961 6.84395 17.2187 6.8127 17.5781C6.76973 18.1015 6.4963 18.3984 6.0588 18.3984C5.8127 18.3984 5.6838 18.3359 5.5002 18.1328C5.35177 17.9648 5.33223 17.9101 5.27755 17.4687C5.21895 17.0156 5.04317 16.8203 4.57052 16.6992C3.88302 16.5234 3.44942 16.0429 3.35177 15.3398C3.28927 14.8867 3.33223 12.5351 3.41036 12.2617C3.50411 11.9258 4.97677 8.74216 5.16427 8.46482C5.51192 7.94919 6.09005 7.49216 6.64864 7.28904C6.80489 7.23044 7.11348 7.16013 7.33614 7.13279C7.64083 7.09372 7.76973 7.05466 7.88692 6.98044C8.21114 6.7656 8.3088 6.23825 8.09005 5.88669C7.91427 5.61325 7.72286 5.53122 7.28145 5.53904C6.3088 5.55857 5.26583 6.03513 4.44942 6.83591C3.84786 7.42185 3.69552 7.68357 2.8088 9.62497L2.05098 11.2812L1.40645 11.2968C0.84786 11.3125 0.742391 11.3242 0.605672 11.3945C0.429891 11.4883 0.347859 11.5664 0.258016 11.7461C0.172078 11.914 0.179891 12.2812 0.269734 12.4804C0.418172 12.8086 0.613485 12.8906 1.2463 12.8906H1.71114L1.72677 14.2461C1.7502 15.8164 1.76973 15.9609 2.07052 16.582C2.38302 17.2226 2.8088 17.664 3.42208 17.9765C3.73848 18.1406 3.74239 18.1445 3.8088 18.3594C4.03927 19.1094 4.70333 19.7422 5.45333 19.9375C5.76192 20.0156 6.34395 20.0195 6.65255 19.9375C7.36348 19.7539 7.9963 19.1992 8.2463 18.539L8.33223 18.3203H10.2033C11.9494 18.3203 12.0744 18.3242 12.094 18.3867C12.1057 18.4258 12.1799 18.5898 12.258 18.75C12.5315 19.3047 13.1213 19.7812 13.7346 19.9375C14.1213 20.039 14.7072 20.0195 15.0627 19.9023C15.8088 19.6523 16.4182 19.0273 16.6057 18.3125C16.6525 18.1445 16.6721 18.125 16.8908 18.0195C17.2268 17.8633 17.6916 17.5039 17.926 17.2187C18.1799 16.914 18.4885 16.289 18.5783 15.8984C18.633 15.6601 18.6486 15.3515 18.6643 14.2461L18.6799 12.8906H19.1565C19.6565 12.8906 19.8596 12.8359 20.008 12.6718C20.2697 12.375 20.2502 11.7617 19.9768 11.5195C19.7736 11.3398 19.6486 11.3125 18.9846 11.2968L18.34 11.2773L17.5783 9.61326C16.715 7.72263 16.5471 7.43357 15.9807 6.87107C15.2463 6.13669 14.4494 5.73044 13.3791 5.54685C13.1291 5.50388 12.9104 5.46872 12.8986 5.47263C12.883 5.47654 12.8205 5.48825 12.7541 5.50388Z" fill="white"/>
<path d="M5.74219 11.3242C5.33594 11.4101 5.11719 11.6796 5.11719 12.0976C5.11719 12.3398 5.21094 12.5898 5.33594 12.7031C5.55469 12.8984 5.375 12.8906 10.2031 12.8906C14.4883 12.8906 14.7148 12.8867 14.8633 12.8164C15.1367 12.6914 15.2734 12.4531 15.2734 12.1093C15.2734 11.7695 15.1445 11.5429 14.8633 11.3906L14.707 11.3086L10.293 11.3046C7.86719 11.3007 5.81641 11.3086 5.74219 11.3242Z" fill="white"/>
<path d="M5.25405 13.9218C5.01576 14.0312 4.9142 14.1406 4.80092 14.3906C4.56655 14.9257 4.83608 15.5664 5.37905 15.7461C5.45326 15.7695 5.63295 15.7812 5.78139 15.7734C6.11733 15.7539 6.37123 15.6093 6.5392 15.3359C6.75795 14.9843 6.71889 14.4492 6.45326 14.1328C6.20326 13.8359 5.64467 13.7382 5.25405 13.9218Z" fill="white"/>
<path d="M14.2776 13.9218C13.9065 14.0937 13.7307 14.4179 13.7581 14.875C13.7854 15.3984 14.1292 15.7461 14.6487 15.7734C15.1057 15.8007 15.426 15.6289 15.6057 15.2578C15.7854 14.8867 15.7229 14.3945 15.4573 14.1054C15.2034 13.832 14.6526 13.7461 14.2776 13.9218Z" fill="white"/>
</g>
<defs>
<clipPath id="clip0_2021_1929">
<rect width="20" height="20" fill="white" transform="translate(0.195312)"/>
</clipPath>
</defs>
</svg>
