<svg width="14" height="14" viewBox="0 0 14 14" fill="none" xmlns="http://www.w3.org/2000/svg">
<path d="M12.8166 6.30745H12.8187C13.1904 6.30745 13.4926 6.6085 13.4933 6.98042C13.4987 8.78335 12.8018 10.481 11.5307 11.7594C10.2603 13.0379 8.56827 13.7446 6.76624 13.75H6.74668C4.95139 13.75 3.26271 13.0534 1.98962 11.7864C0.711802 10.5154 0.00542843 8.8225 3.11157e-05 7.01958C-0.0053662 5.21598 0.691562 3.51903 1.96263 2.24057C3.23302 0.962125 4.92508 0.2554 6.72711 0.25C7.26347 0.2581 7.80995 0.3121 8.33349 0.43765C8.69511 0.5254 8.91842 0.8899 8.83071 1.25238C8.74368 1.61418 8.37734 1.83693 8.01707 1.75053C7.5981 1.64928 7.1535 1.60675 6.73116 1.6C5.2894 1.60405 3.93535 2.1697 2.9193 3.19233C1.90258 4.21495 1.34531 5.57305 1.34936 7.01552C1.35341 8.458 1.91878 9.81205 2.94089 10.8293C3.95964 11.8425 5.31031 12.4 6.74668 12.4H6.76219C8.20395 12.396 9.558 11.8303 10.574 10.8077C11.5908 9.78438 12.148 8.42695 12.144 6.98448C12.1433 6.61188 12.4442 6.30813 12.8166 6.30745Z" fill="#AEAEB2"/>
<path d="M4.24569 6.52274C4.50948 6.25882 4.93587 6.25882 5.19966 6.52274L6.71361 8.03744L10.962 3.18014C11.2075 2.90137 11.6333 2.87167 11.9139 3.11737C12.1939 3.36239 12.2222 3.78899 11.9767 4.06979L7.25401 9.46979C7.13123 9.61019 6.95581 9.69322 6.76893 9.69997H6.74667C6.56788 9.69997 6.39652 9.6291 6.26968 9.50219L4.24569 7.47719C3.98189 7.21327 3.98189 6.78667 4.24569 6.52274Z" fill="#AEAEB2"/>
</svg>
