<svg width="14" height="14" viewBox="0 0 14 14" fill="none" xmlns="http://www.w3.org/2000/svg">
<path d="M12.823 6.05769H12.825C13.197 6.05769 13.4994 6.35874 13.5 6.73067C13.5054 8.53359 12.8082 10.2312 11.5365 11.5097C10.2654 12.7881 8.57253 13.4948 6.76961 13.5002H6.75003C4.95386 13.5002 3.26433 12.8036 1.99061 11.5367C0.712156 10.2656 0.00543113 8.57274 3.11312e-05 6.76982C-0.00536887 4.96622 0.691906 3.26927 1.96361 1.99082C3.23463 0.712369 4.92753 0.00564414 6.73046 0.000244141C7.26708 0.00834414 7.81383 0.0623441 8.33763 0.187894C8.69943 0.275644 8.92286 0.640144 8.83511 1.00262C8.74803 1.36442 8.38151 1.58717 8.02106 1.50077C7.60188 1.39952 7.15706 1.35699 6.73451 1.35024C5.29203 1.35429 3.93731 1.91994 2.92076 2.94257C1.90353 3.96519 1.34598 5.32329 1.35003 6.76577C1.35408 8.20824 1.91973 9.56229 2.94236 10.5795C3.96161 11.5927 5.31296 12.1502 6.75003 12.1502H6.76556C8.20803 12.1462 9.56276 11.5805 10.5793 10.5579C11.5965 9.53462 12.1541 8.17719 12.15 6.73472C12.1494 6.36212 12.4504 6.05837 12.823 6.05769Z" fill="white"/>
<path d="M4.2478 6.27299C4.51172 6.00906 4.93832 6.00906 5.20225 6.27299L6.71695 7.78769L10.9674 2.93039C11.2131 2.65161 11.639 2.62191 11.9198 2.86761C12.2 3.11264 12.2283 3.53924 11.9826 3.82004L7.25762 9.22004C7.13477 9.36044 6.95927 9.44346 6.7723 9.45021H6.75002C6.57115 9.45021 6.3997 9.37934 6.2728 9.25244L4.2478 7.22744C3.98387 6.96351 3.98387 6.53691 4.2478 6.27299Z" fill="white"/>
</svg>
