<svg width="20" height="20" viewBox="0 0 20 20" fill="none" xmlns="http://www.w3.org/2000/svg">
<g clip-path="url(#clip0_2021_1000)">
<path d="M9.39453 0.0585938C9.01172 0.164062 1.23828 3.36328 1.02734 3.50391C0.578125 3.80078 0.199219 4.33594 0.0585938 4.86328C-0.0273438 5.19531 -0.0273438 6.99219 0.0585938 7.32031C0.21875 7.93359 0.695312 8.52344 1.25781 8.8125L1.5625 8.96484V13.4922C1.5625 18.5117 1.54688 18.2148 1.82422 18.7656C1.91797 18.9531 2.05469 19.1328 2.24219 19.3164C2.69922 19.7695 3.24219 20 3.85156 20C4.10547 20 4.17969 19.9844 4.32031 19.9023C4.56641 19.7578 4.6875 19.5312 4.6875 19.2188C4.6875 18.7617 4.41406 18.4766 3.92578 18.418C3.5625 18.375 3.375 18.2578 3.22656 17.9883L3.14453 17.832L3.13281 13.4453L3.125 9.0625H10H16.875L16.8672 13.4453L16.8555 17.832L16.7734 17.9883C16.625 18.2578 16.4375 18.375 16.0742 18.418C15.5859 18.4766 15.3125 18.7617 15.3125 19.2188C15.3125 19.5312 15.4336 19.7578 15.6797 19.9023C15.8203 19.9844 15.8945 20 16.1484 20C17.1836 20 18.1133 19.2734 18.375 18.2539C18.4297 18.043 18.4375 17.4766 18.4375 13.4922V8.96484L18.7422 8.8125C19.3047 8.52344 19.7812 7.93359 19.9414 7.32031C19.9883 7.14453 20 6.86328 20 6.09375C20 4.98828 19.9766 4.83203 19.7539 4.375C19.5977 4.05078 19.0977 3.54297 18.7891 3.39062C18.4062 3.20312 10.8086 0.113281 10.5859 0.0546875C10.3203 -0.015625 9.65625 -0.0117188 9.39453 0.0585938ZM14.1055 3.19922C16.2578 4.07812 18.0664 4.83203 18.1211 4.875C18.1758 4.91406 18.2656 5.02734 18.3203 5.12109C18.4141 5.28906 18.418 5.3125 18.418 6.09375C18.418 6.83594 18.4102 6.90625 18.3359 7.05078C18.2383 7.23047 18.1602 7.30469 17.9688 7.40625C17.8359 7.47656 17.5781 7.48047 10 7.48047C2.42188 7.48047 2.16406 7.47656 2.03125 7.40625C1.83984 7.30469 1.76172 7.23047 1.66406 7.05078C1.58984 6.90625 1.58203 6.83594 1.58203 6.09375C1.58203 5.3125 1.58594 5.28906 1.67969 5.12109C1.73438 5.02734 1.82422 4.91406 1.87891 4.875C1.93359 4.83203 3.73438 4.08203 5.88281 3.20312C9.23047 1.83594 9.8125 1.60547 9.98828 1.60547C10.168 1.60156 10.625 1.77734 14.1055 3.19922Z" fill="#121212"/>
<path d="M8.01953 4.47656C7.77734 4.62109 7.65625 4.84766 7.65625 5.15625C7.65625 5.46875 7.77734 5.69531 8.02344 5.83984L8.19141 5.9375H10H11.8086L11.9766 5.83984C12.2227 5.69531 12.3437 5.46875 12.3437 5.15625C12.3437 4.84375 12.2227 4.61719 11.9766 4.47266L11.8086 4.375H9.99609H8.18359L8.01953 4.47656Z" fill="#121212"/>
<path d="M8.40234 10.6875C7.80469 10.8477 7.20703 11.3359 6.9375 11.8789C6.84375 12.0703 6.72656 12.4414 6.58984 12.9805L6.38672 13.7891L6.01562 13.9727C5.37891 14.2813 4.91797 14.8359 4.74609 15.4961C4.67188 15.7852 4.67188 16.4063 4.74609 16.6953C4.90625 17.3086 5.38281 17.8984 5.94531 18.1875L6.25 18.3398V18.9023C6.25 19.4336 6.25391 19.4766 6.34766 19.6328C6.49219 19.8789 6.71875 20 7.03125 20C7.34375 20 7.57031 19.8789 7.71484 19.6328C7.80469 19.4766 7.8125 19.4297 7.8125 18.9531V18.4375H10H12.1875V18.9531C12.1875 19.4297 12.1953 19.4766 12.2852 19.6328C12.4297 19.8789 12.6562 20 12.9688 20C13.2812 20 13.5078 19.8789 13.6523 19.6328C13.7461 19.4766 13.75 19.4336 13.75 18.9023V18.3398L14.0547 18.1875C14.6172 17.8984 15.0938 17.3086 15.2539 16.6953C15.3281 16.4063 15.3281 15.7852 15.2539 15.4961C15.082 14.832 14.6094 14.2656 13.9805 13.9688L13.6172 13.793L13.4102 12.9805C13.1562 11.9727 13.0312 11.6992 12.6406 11.3086C12.3359 11.0039 11.9648 10.7852 11.5781 10.6836C11.2578 10.6016 8.71875 10.6016 8.40234 10.6875ZM11.082 12.2227C11.2812 12.2617 11.4805 12.3906 11.5938 12.5547C11.6367 12.6211 11.7344 12.918 11.8086 13.2109L11.9453 13.75H10H8.05469L8.19141 13.2109C8.26562 12.918 8.36328 12.6211 8.40625 12.5547C8.51562 12.3984 8.71875 12.2578 8.89844 12.2227C9.10156 12.1836 10.8828 12.1836 11.082 12.2227ZM13.3008 15.4141C13.5781 15.5625 13.7109 15.7852 13.7109 16.0938C13.7109 16.4023 13.5781 16.625 13.3008 16.7734C13.1445 16.8555 13.1406 16.8555 10 16.8555C6.85938 16.8555 6.85547 16.8555 6.69922 16.7734C6.42188 16.625 6.28906 16.4023 6.28906 16.0938C6.28906 15.707 6.51953 15.4297 6.91406 15.3477C6.98828 15.332 8.42188 15.3242 10.0977 15.3242C13.1328 15.332 13.1445 15.332 13.3008 15.4141Z" fill="#121212"/>
</g>
<defs>
<clipPath id="clip0_2021_1000">
<rect width="20" height="20" fill="white"/>
</clipPath>
</defs>
</svg>
