<svg width="20" height="20" viewBox="0 0 20 20" fill="none" xmlns="http://www.w3.org/2000/svg">
<g clip-path="url(#clip0_2021_843)">
<path d="M9.14844 0.0546851C8.52344 0.175779 7.89453 0.425779 7.42188 0.746091C7.28125 0.839841 5.91406 1.875 4.38281 3.04297C1.33594 5.36719 1.12891 5.54687 0.695312 6.25C0.417969 6.69922 0.1875 7.28125 0.0820312 7.80078C0.00390625 8.18359 0 8.30859 0 12.0312C0 15.75 0.00390625 15.8789 0.0820312 16.2617C0.460938 18.1328 1.98047 19.6133 3.86328 19.9414C4.08203 19.9805 4.46875 20 5.03906 20C5.77734 20 5.92188 19.9883 6.14062 19.9219C6.59375 19.7812 7.00391 19.457 7.24219 19.0547C7.48828 18.6367 7.47656 18.7578 7.50391 16.1133C7.53125 13.4023 7.52344 13.4648 7.81641 12.8555C8.21094 12.0469 9.07812 11.5234 10.0391 11.5234C10.9961 11.5234 11.8711 12.0469 12.2617 12.8555C12.5547 13.4648 12.5469 13.4023 12.5742 16.1133C12.6016 18.7578 12.5898 18.6367 12.8359 19.0547C13.0742 19.457 13.4844 19.7812 13.9375 19.9219C14.1523 19.9883 14.3008 20 15 20C15.8867 20 16.2852 19.9492 16.793 19.7812C17.4961 19.5469 18.0938 19.1719 18.6328 18.6328C19.1719 18.0937 19.5469 17.4961 19.7812 16.793C20 16.1406 20 16.1367 20 12.0039C20 8.30859 19.9961 8.18359 19.918 7.80078C19.8125 7.28125 19.582 6.69922 19.3047 6.25C18.8672 5.54687 18.6641 5.36719 15.6172 3.03906C14.0859 1.875 12.6953 0.828123 12.5273 0.714841C12.1562 0.472654 11.6719 0.261716 11.1719 0.128904C10.8594 0.0429664 10.6953 0.0273414 10.1172 0.0156226C9.64844 0.00781012 9.34375 0.0195289 9.14844 0.0546851ZM10.6758 1.66406C11.3164 1.80469 11.5195 1.9414 14.4531 4.17969C15.9453 5.32031 17.2578 6.33203 17.3711 6.42969C17.7617 6.76562 18.1211 7.32812 18.2852 7.85937C18.4258 8.32031 18.4414 8.86719 18.4297 12.3633C18.4141 15.6875 18.4141 15.7266 18.3281 16.0352C18.0078 17.1914 17.1641 18.0352 16.0391 18.3203C15.7891 18.3828 15.6055 18.3984 15.0625 18.3984C14.5977 18.3945 14.375 18.3828 14.3359 18.3477C14.1523 18.1992 14.1602 18.2969 14.1406 15.707L14.1172 13.2617L14.0117 12.9102C13.418 10.9492 11.7031 9.77734 9.66016 9.92969C8.9375 9.98437 8.15234 10.2852 7.54297 10.7461C6.83984 11.2734 6.34766 12 6.06641 12.9102L5.96094 13.2617L5.9375 15.707C5.91797 18.2969 5.92578 18.1992 5.74219 18.3477C5.69922 18.3828 5.47266 18.3945 4.97656 18.3984C4.39453 18.3984 4.21484 18.3828 3.96094 18.3203C3.04297 18.0859 2.28906 17.4687 1.89062 16.6211C1.57422 15.9492 1.58984 16.1406 1.57422 12.3633C1.55859 8.85547 1.57422 8.33594 1.71875 7.85937C1.87891 7.32031 2.25 6.74609 2.66016 6.40234C3.00391 6.11328 8.15625 2.1914 8.375 2.05469C8.64062 1.88672 8.94531 1.75781 9.27734 1.67578C9.63281 1.58594 10.3008 1.58203 10.6758 1.66406Z" fill="#121212"/>
<path d="M7.59766 6.79298C7.17969 6.8672 6.95312 7.14845 6.95312 7.58595C6.95703 7.87111 7.06641 8.09376 7.26953 8.23048L7.4375 8.33986L10.0117 8.35158C12.5781 8.35939 12.5898 8.35939 12.7617 8.27736C13 8.16408 13.1367 7.94923 13.1562 7.65626C13.1836 7.27736 13.0586 7.02345 12.7617 6.8633L12.5977 6.77736L10.1758 6.77345C8.84375 6.76955 7.68359 6.77736 7.59766 6.79298Z" fill="#121212"/>
</g>
<defs>
<clipPath id="clip0_2021_843">
<rect width="20" height="20" fill="white"/>
</clipPath>
</defs>
</svg>
