<svg width="20" height="20" viewBox="0 0 20 20" fill="none" xmlns="http://www.w3.org/2000/svg">
<g clip-path="url(#clip0_2021_1042)">
<path d="M3.29297 0.0585925C2.98438 0.14453 2.58203 0.36328 2.34375 0.574218C2.04297 0.843749 0.441406 2.99609 0.28125 3.34375C0.078125 3.78906 0 4.16406 0 4.6875C0 5.25781 0.0859375 5.625 0.339844 6.12891C0.546875 6.54297 0.980469 7.03906 1.34766 7.28516L1.5625 7.42578V8.75781V10.0898L1.66016 10.2578C1.80469 10.5039 2.03125 10.625 2.34375 10.625C2.65625 10.625 2.88281 10.5039 3.02734 10.2578L3.125 10.0898V8.95312V7.8125H3.35156C3.90625 7.8125 4.72266 7.47656 5.16797 7.06641L5.41797 6.83984L5.51172 6.94141C5.67578 7.11719 6.10156 7.42187 6.35547 7.54297C6.93359 7.82031 7.77344 7.89844 8.42188 7.73437C8.87891 7.62109 9.40234 7.34375 9.72656 7.04297L10 6.78906L10.2734 7.04297C10.5977 7.34375 11.1211 7.62109 11.5781 7.73437C12.2266 7.89844 13.0664 7.82031 13.6445 7.54297C13.8984 7.42187 14.3242 7.11719 14.4883 6.94141L14.582 6.83984L14.832 7.06641C15.2773 7.47656 16.0938 7.8125 16.6484 7.8125H16.875V8.95312V10.0898L16.9727 10.2578C17.1172 10.5039 17.3438 10.625 17.6562 10.625C17.9688 10.625 18.1953 10.5039 18.3398 10.2578L18.4375 10.0898V8.75781V7.42578L18.6641 7.26953C19.043 7.01172 19.4531 6.54297 19.6641 6.125C19.9141 5.625 20 5.25781 20 4.6875C20 4.16406 19.9219 3.78906 19.7188 3.34375C19.5586 2.99609 17.957 0.843749 17.6562 0.574218C17.4141 0.355468 17.0156 0.140624 16.6914 0.0585925C16.3672 -0.027345 3.60547 -0.0234388 3.29297 0.0585925ZM16.4375 1.67187C16.5742 1.74609 16.7539 1.95703 17.418 2.84766C17.8984 3.48828 18.2617 4.01172 18.3047 4.125C18.3594 4.26562 18.3789 4.41797 18.3789 4.70703C18.3789 5.05078 18.3672 5.125 18.2734 5.32422C18.1367 5.61328 17.8008 5.94922 17.5117 6.08594C17.3086 6.17969 17.2383 6.19141 16.875 6.19141C16.5117 6.19141 16.4414 6.17969 16.2383 6.08594C15.9531 5.95312 15.6133 5.61328 15.4844 5.33594C15.4297 5.21094 15.3711 4.98437 15.3477 4.78125C15.2695 4.16797 15.0234 3.90625 14.5312 3.90625C14.0547 3.90625 13.7812 4.18359 13.7305 4.70703C13.6758 5.31641 13.457 5.74609 13.0703 6.00391C12.8203 6.17578 12.6211 6.22266 12.2461 6.20312C11.8398 6.18359 11.5586 6.05469 11.2656 5.76562C10.9922 5.48828 10.8711 5.22266 10.8164 4.78125C10.7383 4.16797 10.4922 3.90625 10 3.90625C9.50781 3.90625 9.26172 4.16797 9.18359 4.78125C9.12891 5.22266 9.00781 5.48828 8.73438 5.76562C8.44141 6.05469 8.16016 6.18359 7.75391 6.20312C7.37891 6.22266 7.17969 6.17578 6.92969 6.00391C6.54297 5.74609 6.32422 5.31641 6.26953 4.70703C6.21875 4.18359 5.94531 3.90625 5.46875 3.90625C4.97656 3.90625 4.73047 4.16797 4.65234 4.78125C4.62891 4.98437 4.57031 5.21094 4.51562 5.33594C4.38672 5.61328 4.04688 5.95312 3.76172 6.08594C3.55859 6.17969 3.48828 6.19141 3.125 6.19141C2.76172 6.19141 2.69141 6.17969 2.48828 6.08594C2.19531 5.94922 1.86328 5.61328 1.73047 5.32422C1.64844 5.14453 1.62109 5.02344 1.60938 4.74609C1.58594 4.20312 1.62891 4.11719 2.58203 2.84766C3.41406 1.73828 3.48828 1.66016 3.78906 1.59766C3.86328 1.58203 6.70312 1.57422 10.0977 1.57812L16.2695 1.58203L16.4375 1.67187Z" fill="#121212"/>
<path d="M1.69925 12.2617C0.898469 12.4961 0.265657 13.1406 0.0586256 13.9336C-0.0312182 14.2734 -0.0273119 17.9102 0.0625318 18.2539C0.269563 19.0586 0.941438 19.7305 1.74222 19.9375C1.96097 19.9922 2.80863 20 10 20C17.1563 20 18.043 19.9922 18.2539 19.9375C19.0664 19.7266 19.7266 19.0664 19.9375 18.2539C20.0313 17.9023 20.0313 14.2852 19.9375 13.9336C19.7266 13.1211 19.0664 12.4609 18.2539 12.25C18.043 12.1953 17.1602 12.1875 9.9766 12.1914C2.43363 12.1914 1.918 12.1992 1.69925 12.2617ZM17.9883 13.8516C18.168 13.9492 18.2422 14.0273 18.3438 14.2187C18.4141 14.3477 18.418 14.4687 18.418 16.0937C18.418 17.7187 18.4141 17.8398 18.3438 17.9687C18.2422 18.1602 18.168 18.2383 17.9883 18.3359L17.8321 18.418H10C2.42191 18.418 2.16409 18.4141 2.03128 18.3437C1.83988 18.2422 1.76175 18.168 1.66409 17.9883C1.58206 17.8359 1.58206 17.7969 1.58206 16.0937C1.58206 14.4687 1.58597 14.3477 1.65628 14.2187C1.793 13.9609 1.94925 13.8437 2.22659 13.7852C2.30081 13.7695 5.84378 13.7617 10.0977 13.7656L17.8321 13.7695L17.9883 13.8516Z" fill="#121212"/>
<path d="M8.01953 15.4141C7.77734 15.5586 7.65625 15.7852 7.65625 16.0938C7.65625 16.4062 7.77734 16.6328 8.02344 16.7773L8.19141 16.875H10H11.8086L11.9766 16.7773C12.2227 16.6328 12.3437 16.4062 12.3437 16.0938C12.3437 15.7812 12.2227 15.5547 11.9766 15.4102L11.8086 15.3125H9.99609H8.18359L8.01953 15.4141Z" fill="#121212"/>
</g>
<defs>
<clipPath id="clip0_2021_1042">
<rect width="20" height="20" fill="white"/>
</clipPath>
</defs>
</svg>
