<svg width="20" height="20" viewBox="0 0 20 20" fill="none" xmlns="http://www.w3.org/2000/svg">
<g clip-path="url(#clip0_2021_1024)">
<path d="M9.14844 0.0413513C8.52344 0.162445 7.89453 0.412445 7.42188 0.732758C7.28125 0.826508 5.91406 1.86166 4.38672 3.02573C1.33594 5.35385 1.13281 5.52963 0.695312 6.23666C0.417969 6.68588 0.1875 7.26791 0.0820312 7.78745C0.00390625 8.17026 0 8.29526 0 12.0179C0 15.7367 0.00390625 15.8656 0.0820312 16.2484C0.460938 18.1195 1.98047 19.5999 3.86328 19.9281C4.35156 20.014 15.6484 20.014 16.1367 19.9281C17.0859 19.764 17.9297 19.3226 18.6328 18.6195C19.1719 18.0804 19.5469 17.4828 19.7812 16.7796C20 16.1273 20 16.1234 20 11.9906C20 8.29526 19.9961 8.17026 19.918 7.78745C19.8125 7.26791 19.582 6.68588 19.3047 6.23666C18.8672 5.53354 18.6641 5.35385 15.6172 3.02573C14.0859 1.86166 12.6953 0.814789 12.5273 0.701508C12.1562 0.45932 11.6719 0.248383 11.1719 0.11557C10.8594 0.0296326 10.6953 0.0140076 10.1172 0.00228882C9.64844 -0.00552368 9.34375 0.00619507 9.14844 0.0413513ZM10.6758 1.65073C11.3164 1.79135 11.5195 1.92807 14.4531 4.16635C15.9453 5.30698 17.2578 6.3187 17.3711 6.41635C17.7617 6.75229 18.1211 7.31479 18.2852 7.84604C18.4258 8.30698 18.4414 8.85385 18.4297 12.3499C18.4141 15.6742 18.4141 15.7132 18.3281 16.0218C18.0078 17.1781 17.1641 18.0218 16.0391 18.307C15.7344 18.3851 15.6094 18.3851 10 18.3851C4.39062 18.3851 4.26562 18.3851 3.96094 18.307C3.04297 18.0726 2.28906 17.4554 1.89062 16.6078C1.57422 15.9359 1.58984 16.1273 1.57422 12.3499C1.55859 8.85385 1.57422 8.31088 1.71484 7.84604C1.87891 7.31479 2.23828 6.75229 2.62891 6.41635C2.74219 6.3187 4.05469 5.30698 5.54688 4.16635C8.44141 1.95541 8.65234 1.81479 9.26172 1.66635C9.63281 1.5726 10.2969 1.56479 10.6758 1.65073Z" fill="#121212"/>
<path d="M9.51172 3.22887C8.78125 3.38512 8.19531 3.83043 7.89062 4.46324C7.68359 4.89293 7.65625 5.09605 7.65625 6.27965V7.35387L7.76953 7.53355C7.84375 7.65074 7.94141 7.73668 8.05469 7.79527C8.22266 7.8773 8.26953 7.8773 10 7.8773C11.7305 7.8773 11.7773 7.8773 11.9453 7.79527C12.0586 7.73668 12.1562 7.65074 12.2305 7.53355L12.3438 7.35387V6.27965C12.3438 5.09605 12.3164 4.89293 12.1094 4.46324C11.8516 3.92809 11.3828 3.51793 10.8086 3.31871C10.5 3.21324 9.80859 3.16246 9.51172 3.22887ZM10.3438 4.86559C10.6602 5.02574 10.75 5.22496 10.7734 5.8148L10.793 6.27574H10H9.20703L9.22656 5.8148C9.25 5.22105 9.33984 5.02965 9.66797 4.85777C9.83203 4.77184 10.1641 4.77574 10.3438 4.86559Z" fill="#121212"/>
<path d="M6.23047 9.51791C5.46875 9.61557 4.83594 10.1468 4.60938 10.8773C4.53516 11.1156 4.53125 11.2445 4.53125 13.8265C4.53125 16.4945 4.53125 16.5257 4.61328 16.6976C4.66406 16.7992 4.76172 16.9085 4.85547 16.971C4.99219 17.0609 5.05469 17.0765 5.30859 17.0765H5.60547L7.80469 15.8812L10 14.682L12.1992 15.8812L14.3945 17.0765H14.6914C14.9453 17.0765 15.0078 17.0609 15.1445 16.971C15.2383 16.9085 15.3359 16.7992 15.3867 16.6976C15.4688 16.5257 15.4688 16.4945 15.4688 13.8265C15.4688 11.2445 15.4648 11.1156 15.3906 10.8773C15.2461 10.4046 14.8672 9.9437 14.4531 9.73276C13.9688 9.48666 14.207 9.50229 10.1562 9.49448C8.125 9.49057 6.35938 9.50229 6.23047 9.51791ZM13.1797 11.1117C13.1523 11.139 10.4609 12.6039 10.0859 12.7953C10.0039 12.8382 9.85156 12.7679 8.46484 12.014C7.62109 11.557 6.89844 11.1624 6.85547 11.1312C6.79297 11.0882 7.30078 11.0804 10 11.0804C11.7695 11.0804 13.2031 11.096 13.1797 11.1117ZM7.42969 13.2874C7.89844 13.5374 8.27344 13.7601 8.26172 13.7757C8.24219 13.807 6.15234 14.9476 6.11719 14.9476C6.10547 14.9476 6.09375 14.4085 6.09375 13.7523V12.557L6.33984 12.6898C6.47266 12.764 6.96484 13.0335 7.42969 13.2874ZM13.8906 14.9359C13.8711 14.9554 11.8477 13.8695 11.7656 13.7953C11.7266 13.7601 11.957 13.6195 12.8008 13.1624L13.8867 12.5726L13.8984 13.7445C13.9023 14.3929 13.8984 14.9281 13.8906 14.9359Z" fill="#121212"/>
</g>
<defs>
<clipPath id="clip0_2021_1024">
<rect width="20" height="20" fill="white"/>
</clipPath>
</defs>
</svg>
