<svg width="20" height="20" viewBox="0 0 20 20" fill="none" xmlns="http://www.w3.org/2000/svg">
<path d="M8.75 0.0615151C6.07422 0.428277 3.23828 2.03703 0.804688 4.57518C0.0820312 5.32954 0 5.45874 0 5.8255C0 6.3298 0.300781 6.66322 0.757812 6.66322C1.04297 6.66322 1.22656 6.57987 1.41406 6.36314L1.5625 6.19227V12.2605V18.3329H1.04688C0.570312 18.3329 0.523438 18.3412 0.367188 18.4371C0.121094 18.5913 0 18.833 0 19.1665C0 19.4999 0.121094 19.7416 0.367188 19.8958L0.535156 20H2.32031C4.30859 20 4.34766 19.9958 4.85938 19.7208C5.23438 19.5207 5.64453 19.0831 5.83203 18.683C6.08203 18.1537 6.09375 18.0495 6.09375 16.4407V14.9987H8.95312H11.8086L11.9766 14.8945C12.2227 14.7403 12.3438 14.4986 12.3438 14.1652C12.3438 13.8317 12.2227 13.59 11.9766 13.4358L11.8086 13.3316H8.95312H6.09375V12.4981V11.6645H10H13.9062V14.7736C13.9062 18.2245 13.8984 18.112 14.168 18.683C14.3516 19.0706 14.7617 19.5124 15.1367 19.7166C15.6406 19.9958 15.6836 20 17.6797 20H19.4648L19.6328 19.8958C19.8789 19.7416 20 19.4999 20 19.1665C20 18.833 19.8789 18.5913 19.6328 18.4371C19.4766 18.3412 19.4297 18.3329 18.9531 18.3329H18.4375V12.2563V6.18393L18.5664 6.33814C18.7656 6.58403 18.9258 6.66322 19.2148 6.66322C19.6992 6.66322 20 6.3423 20 5.8255C20 5.45874 19.918 5.32954 19.1953 4.57518C18.0859 3.41655 16.9453 2.49548 15.6445 1.69944C14.2461 0.845051 12.6719 0.261567 11.1992 0.0573474C10.6328 -0.0218397 9.33203 -0.017672 8.75 0.0615151ZM10.6641 1.72444C11.875 1.79946 13.4023 2.3371 14.8047 3.17065C15.3242 3.48323 16.2266 4.1209 16.6328 4.46265L16.875 4.67104V11.5061V18.3454L16.4727 18.3246C15.9375 18.2954 15.7422 18.1912 15.5703 17.8536C15.4883 17.6869 15.4883 17.6827 15.4688 13.4983L15.4492 9.30974L15.3438 8.97632C15.0586 8.08859 14.5117 7.40925 13.7695 7.01748C13.0898 6.65489 13.1836 6.66322 10 6.66322C6.81641 6.66322 6.91016 6.65489 6.23047 7.01748C5.48047 7.41341 4.92578 8.1136 4.64453 9.018L4.55078 9.30974L4.53125 13.4983C4.51172 17.6827 4.51172 17.6869 4.42969 17.8536C4.25781 18.1912 4.0625 18.2954 3.52734 18.3246L3.125 18.3454V11.5061V4.67104L3.37109 4.46682C5.38672 2.77472 7.64844 1.78279 9.6875 1.6911C9.94141 1.6786 10.0391 1.68277 10.6641 1.72444ZM12.5195 8.372C12.8906 8.43034 13.1641 8.57622 13.4219 8.84712C13.6719 9.11385 13.8242 9.43894 13.8555 9.76819L13.8789 9.99742H10H6.12109L6.14453 9.76819C6.17578 9.43894 6.32812 9.11385 6.57812 8.84712C6.82812 8.58455 7.11719 8.42618 7.44531 8.37616C7.77734 8.32615 12.1875 8.32198 12.5195 8.372Z" fill="#121212"/>
<path d="M9.58203 3.43739C9.33984 3.59159 9.21875 3.83332 9.21875 4.16258C9.21875 4.67521 9.51953 4.99612 10 4.99612C10.4805 4.99612 10.7812 4.67521 10.7812 4.16258C10.7812 3.64994 10.4805 3.32903 9.99609 3.32903C9.79688 3.32903 9.71094 3.34987 9.58203 3.43739Z" fill="#121212"/>
</svg>
