<svg width="20" height="20" viewBox="0 0 20 20" fill="none" xmlns="http://www.w3.org/2000/svg">
<g clip-path="url(#clip0_2021_1013)">
<path d="M3.16423 0.0859375C2.8947 0.191406 2.61345 0.464844 2.23845 0.996094C1.60173 1.89453 1.35564 2.46484 1.35954 3.03906C1.36736 3.6875 1.57439 4.19141 2.03142 4.65234C2.51189 5.13281 3.03142 5.35156 3.71111 5.35156C4.37907 5.35156 4.90251 5.13281 5.37517 4.66797C5.83611 4.21094 6.05486 3.67578 6.05486 3.02344C6.05486 2.44141 5.81657 1.89453 5.17986 0.996094C4.61345 0.195312 4.32048 0 3.69939 0.00390625C3.47282 0.00390625 3.31657 0.0273438 3.16423 0.0859375ZM3.98845 2.10547C4.43767 2.76172 4.52751 3.05859 4.37907 3.35156C4.25017 3.60547 4.00798 3.75 3.71111 3.75C3.18376 3.75 2.8322 3.26172 3.02751 2.79688C3.16814 2.46484 3.65251 1.74609 3.72282 1.76953C3.74626 1.77734 3.86345 1.92969 3.98845 2.10547Z" fill="#121212"/>
<path d="M9.41423 0.0859375C9.1447 0.191406 8.86345 0.464844 8.48845 0.996094C8.10173 1.53906 7.84392 2.01172 7.71892 2.39062C7.37517 3.42969 7.8986 4.625 8.90642 5.10938C9.30095 5.29688 9.54314 5.35156 9.97282 5.35156C10.6291 5.35156 11.1603 5.12891 11.6213 4.66797C12.0783 4.21094 12.3088 3.66406 12.3088 3.02734C12.3088 2.46094 12.0588 1.87891 11.4338 0.996094C10.8674 0.199219 10.5705 0 9.94939 0.00390625C9.72282 0.00390625 9.56657 0.0273438 9.41423 0.0859375ZM10.2384 2.10547C10.6877 2.76562 10.7775 3.05859 10.6291 3.35156C10.5002 3.60547 10.258 3.75 9.9611 3.75C9.66423 3.75 9.42204 3.60547 9.29314 3.35156C9.18767 3.14453 9.19939 2.95703 9.3361 2.69141C9.56657 2.23828 9.90642 1.74609 9.97673 1.76953C10.0002 1.77734 10.1174 1.92969 10.2384 2.10547Z" fill="#121212"/>
<path d="M15.6641 0.0859375C15.3984 0.1875 15.1172 0.464844 14.7422 0.996094C14.1055 1.89453 13.8672 2.44141 13.8672 3.02344C13.8672 3.67969 14.0859 4.20703 14.5547 4.67578C14.7695 4.88672 14.9141 4.99219 15.1641 5.10938C15.5508 5.29688 15.793 5.35156 16.2227 5.35156C16.8789 5.35156 17.4102 5.13281 17.875 4.66797C18.4922 4.05859 18.7187 3.17188 18.4609 2.39062C18.3398 2.02344 18.0664 1.53516 17.6836 0.996094C17.1172 0.199219 16.8203 0 16.1992 0.00390625C15.9727 0.00390625 15.8164 0.0273438 15.6641 0.0859375ZM16.4922 2.11328C16.7891 2.54688 16.9531 2.88672 16.9531 3.0625C16.9531 3.21875 16.8477 3.45703 16.7305 3.5625C16.4648 3.80469 15.957 3.80469 15.6914 3.5625C15.5742 3.45703 15.4687 3.21875 15.4687 3.05859C15.4687 2.81641 16.1055 1.73047 16.2266 1.76953C16.25 1.77734 16.3711 1.92969 16.4922 2.11328Z" fill="#121212"/>
<path d="M12.5588 5.50388C12.1643 5.60154 11.9533 5.87107 11.9533 6.27341C11.9533 6.56247 12.0705 6.80857 12.2658 6.93747C12.3674 7.00388 12.5432 7.05857 12.844 7.11325C13.0822 7.15232 13.4025 7.23435 13.5588 7.29294C14.1135 7.49607 14.715 7.98044 15.051 8.48826C15.2307 8.75779 16.6955 11.9453 16.7854 12.2578C16.8635 12.5351 16.9065 14.8867 16.844 15.3398C16.7424 16.0468 16.3127 16.5273 15.6057 16.7031C15.3986 16.7539 15.2971 16.8086 15.1682 16.9258C14.9846 17.0976 14.9416 17.207 14.9025 17.5976C14.8557 18.1054 14.5744 18.3984 14.133 18.3984C13.8869 18.3984 13.7346 18.3164 13.5471 18.082C13.4494 17.9609 13.4221 17.8789 13.3908 17.6133C13.344 17.2109 13.2307 16.9961 12.9924 16.8554L12.8244 16.7578H10.0002H7.17598L7.00802 16.8554C6.76973 16.9961 6.64864 17.2187 6.61739 17.5781C6.57442 18.1015 6.30098 18.3984 5.86348 18.3984C5.61739 18.3984 5.48848 18.3359 5.30489 18.1328C5.15645 17.9648 5.13692 17.9101 5.08223 17.4687C5.02364 17.0156 4.84786 16.8203 4.3752 16.6992C3.6877 16.5234 3.25411 16.0429 3.15645 15.3398C3.09395 14.8867 3.13692 12.5351 3.21505 12.2617C3.3088 11.9258 4.78145 8.74216 4.96895 8.46482C5.31661 7.94919 5.89473 7.49216 6.45333 7.28904C6.60958 7.23044 6.91817 7.16013 7.14083 7.13279C7.44552 7.09372 7.57442 7.05466 7.69161 6.98044C8.01583 6.7656 8.11348 6.23825 7.89473 5.88669C7.71895 5.61325 7.52755 5.53122 7.08614 5.53904C6.11348 5.55857 5.07052 6.03513 4.25411 6.83591C3.65255 7.42185 3.5002 7.68357 2.61348 9.62497L1.85567 11.2812L1.21114 11.2968C0.652547 11.3125 0.547078 11.3242 0.410359 11.3945C0.234578 11.4883 0.152547 11.5664 0.0627032 11.7461C-0.0232343 11.914 -0.0154218 12.2812 0.0744219 12.4804C0.222859 12.8086 0.418172 12.8906 1.05098 12.8906H1.51583L1.53145 14.2461C1.55489 15.8164 1.57442 15.9609 1.8752 16.582C2.1877 17.2226 2.61348 17.664 3.22677 17.9765C3.54317 18.1406 3.54708 18.1445 3.61348 18.3594C3.84395 19.1094 4.50802 19.7422 5.25802 19.9375C5.56661 20.0156 6.14864 20.0195 6.45723 19.9375C7.16817 19.7539 7.80098 19.1992 8.05098 18.539L8.13692 18.3203H10.008C11.7541 18.3203 11.8791 18.3242 11.8986 18.3867C11.9104 18.4258 11.9846 18.5898 12.0627 18.75C12.3361 19.3047 12.926 19.7812 13.5393 19.9375C13.926 20.039 14.5119 20.0195 14.8674 19.9023C15.6135 19.6523 16.2229 19.0273 16.4104 18.3125C16.4572 18.1445 16.4768 18.125 16.6955 18.0195C17.0315 17.8633 17.4963 17.5039 17.7307 17.2187C17.9846 16.914 18.2932 16.289 18.383 15.8984C18.4377 15.6601 18.4533 15.3515 18.469 14.2461L18.4846 12.8906H18.9611C19.4611 12.8906 19.6643 12.8359 19.8127 12.6718C20.0744 12.375 20.0549 11.7617 19.7815 11.5195C19.5783 11.3398 19.4533 11.3125 18.7893 11.2968L18.1447 11.2773L17.383 9.61326C16.5197 7.72263 16.3518 7.43357 15.7854 6.87107C15.051 6.13669 14.2541 5.73044 13.1838 5.54685C12.9338 5.50388 12.715 5.46872 12.7033 5.47263C12.6877 5.47654 12.6252 5.48825 12.5588 5.50388Z" fill="#121212"/>
<path d="M5.54688 11.3242C5.14062 11.4101 4.92188 11.6796 4.92188 12.0976C4.92188 12.3398 5.01562 12.5898 5.14062 12.7031C5.35938 12.8984 5.17969 12.8906 10.0078 12.8906C14.293 12.8906 14.5195 12.8867 14.668 12.8164C14.9414 12.6914 15.0781 12.4531 15.0781 12.1093C15.0781 11.7695 14.9492 11.5429 14.668 11.3906L14.5117 11.3086L10.0977 11.3046C7.67188 11.3007 5.62109 11.3086 5.54688 11.3242Z" fill="#121212"/>
<path d="M5.05867 13.9218C4.82039 14.0312 4.71883 14.1406 4.60555 14.3906C4.37117 14.9257 4.6407 15.5664 5.18367 15.746C5.25789 15.7695 5.43758 15.7812 5.58602 15.7734C5.92195 15.7539 6.17586 15.6093 6.34383 15.3359C6.56258 14.9843 6.52352 14.4492 6.25789 14.1328C6.00789 13.8359 5.4493 13.7382 5.05867 13.9218Z" fill="#121212"/>
<path d="M14.0822 13.9218C13.7111 14.0937 13.5354 14.4179 13.5627 14.875C13.59 15.3984 13.9338 15.7461 14.4533 15.7734C14.9104 15.8007 15.2307 15.6289 15.4104 15.2578C15.59 14.8867 15.5275 14.3945 15.2619 14.1054C15.008 13.832 14.4572 13.7461 14.0822 13.9218Z" fill="#121212"/>
</g>
<defs>
<clipPath id="clip0_2021_1013">
<rect width="20" height="20" fill="white"/>
</clipPath>
</defs>
</svg>
