<svg width="171" height="170" viewBox="0 0 171 170" fill="none" xmlns="http://www.w3.org/2000/svg">
<g opacity="0.7">
<path fill-rule="evenodd" clip-rule="evenodd" d="M77 17C44.1391 17 17.5 43.6391 17.5 76.5C17.5 109.361 44.1391 136 77 136C109.861 136 136.5 109.361 136.5 76.5C136.5 43.6391 109.861 17 77 17ZM0.5 76.5C0.5 34.2502 34.7502 0 77 0C119.25 0 153.5 34.2502 153.5 76.5C153.5 118.75 119.25 153 77 153C34.7502 153 0.5 118.75 0.5 76.5Z" fill="white"/>
<path fill-rule="evenodd" clip-rule="evenodd" d="M119.015 118.515C122.334 115.195 127.716 115.195 131.035 118.515L168.01 155.49C171.33 158.809 171.33 164.191 168.01 167.51C164.691 170.83 159.309 170.83 155.99 167.51L119.015 130.535C115.695 127.216 115.695 121.834 119.015 118.515Z" fill="white"/>
<path fill-rule="evenodd" clip-rule="evenodd" d="M77 42.5C81.6944 42.5 85.5 46.3056 85.5 51V102C85.5 106.694 81.6944 110.5 77 110.5C72.3056 110.5 68.5 106.694 68.5 102V51C68.5 46.3056 72.3056 42.5 77 42.5Z" fill="white"/>
<path fill-rule="evenodd" clip-rule="evenodd" d="M43 76.5C43 71.8056 46.8056 68 51.5 68H102.5C107.194 68 111 71.8056 111 76.5C111 81.1944 107.194 85 102.5 85H51.5C46.8056 85 43 81.1944 43 76.5Z" fill="white"/>
</g>
</svg>
