<svg width="59" height="40" viewBox="0 0 59 40" fill="none" xmlns="http://www.w3.org/2000/svg">
<g clip-path="url(#clip0_1_3033)">
<path fill-rule="evenodd" clip-rule="evenodd" d="M1.84605 10.0889C0.662013 10.7123 0.00421143 11.9671 0.00421143 13.3052V36.0042C0.00421143 38.2134 1.79507 40.0042 4.00421 40.0042H54.191C56.4002 40.0042 58.191 38.2134 58.191 36.0042V13.9118C58.191 12.256 57.176 10.7733 55.6302 10.1799C45.5834 6.32276 29.0955 0 29.0955 0C29.0955 0 9.88728 5.85526 1.84605 10.0889ZM3.57775 38.5537C2.47318 38.5537 1.57775 37.6583 1.57775 36.5537V15.5298C1.57775 14.4253 2.47318 13.5298 3.57775 13.5298H54.749C55.8536 13.5298 56.749 14.4253 56.749 15.5298V36.5537C56.749 37.6583 55.8536 38.5537 54.749 38.5537H3.57775Z" fill="#007C35"/>
<path fill-rule="evenodd" clip-rule="evenodd" d="M5.91241 31.1356C5.89225 32.0567 5.6814 32.9636 5.29318 33.7992C5.06414 34.2233 5.0387 34.1045 4.48732 34.1045V37.6376H6.38744V35.941H11.5703V37.6376H13.4832V34.0961H12.3677C12.2829 34.0409 12.3126 34.1936 12.2871 33.9943V26.8561H6.00572C6.00572 27.5856 6.00572 28.3194 6.00572 29.0489C6.00572 29.2355 6.00572 30.9829 5.91241 31.1356ZM14.0939 17.3046V24.5149H16.274V17.3046C16.3206 17.1816 16.363 17.2156 16.5369 17.2198H18.6194V15.4597H11.7358V17.2283H14.0049L14.0812 17.3174L14.0939 17.3046ZM4.4746 18.963C4.4746 20.528 4.28798 22.3561 5.32286 23.5479C5.89888 24.1962 6.70567 24.5935 7.57077 24.6549C8.74562 24.7015 9.57268 24.587 10.281 24.0059C10.6033 23.7456 10.8616 23.4148 11.0359 23.0389C11.2421 22.6271 11.366 22.1791 11.4007 21.7199H9.33941C9.21216 21.9616 9.23761 22.3561 8.78379 22.6445C8.60317 22.7514 8.40117 22.8171 8.19221 22.8369C7.98325 22.8567 7.77249 22.8301 7.57501 22.759C6.47651 22.2924 6.65888 20.562 6.65888 19.3362C6.65888 18.488 6.83278 17.5379 7.53684 17.241C7.73159 17.1618 7.94199 17.1287 8.15165 17.1441C8.36132 17.1596 8.56458 17.2232 8.74562 17.3301C8.89182 17.4275 9.01724 17.5529 9.11461 17.6991C9.20234 17.8783 9.27607 18.0641 9.33516 18.2547H11.4049C11.3654 17.8101 11.2386 17.3777 11.0317 16.9823C10.8521 16.6132 10.5979 16.2854 10.2852 16.0195C8.93224 14.8659 5.59007 14.8956 4.72908 17.5252C4.57641 17.9958 4.49075 18.4855 4.4746 18.98V18.963ZM19.5525 24.5276H21.7241V21.4357C22.9965 21.3424 24.3155 21.6138 25.3886 20.7444C25.8352 20.3373 26.158 19.8126 26.32 19.2305C26.4821 18.6483 26.4768 18.0323 26.3047 17.4531C26.1502 16.9154 25.8327 16.439 25.3958 16.0895C24.959 15.74 24.4244 15.5348 23.866 15.5021C22.4316 15.4069 20.9934 15.3843 19.5568 15.4342V24.5276H19.5525ZM21.7326 17.4404C21.7326 17.2749 21.7326 17.2665 21.9065 17.2665C22.8226 17.2665 24.2689 17.1519 24.218 18.4795C24.1798 19.3914 23.4546 19.6119 22.5766 19.6119C21.8641 19.6119 21.7283 19.6883 21.7283 19.4423V17.4404H21.7326ZM35.729 24.5191H37.5146C38.541 22.9583 39.6819 21.389 40.7295 19.8537C40.8398 19.6925 40.8779 19.6034 40.9925 19.5568V24.5191H43.1725C43.2234 23.6709 43.1725 22.6657 43.1725 21.8089C43.1725 19.8622 43.1386 17.6355 43.1725 15.7226C43.1725 15.3579 43.1725 15.4257 42.7993 15.4342C41.1027 15.4342 41.5693 15.2179 41.0009 16.045C40.8398 16.2782 40.7168 16.4691 40.5768 16.6854L38.3883 19.8706C38.261 20.0488 38.0787 20.4093 37.9175 20.4771V15.4512H35.7417V24.5276L35.729 24.5191ZM44.7672 24.5191H46.8243V19.5653C47.0236 19.6883 47.1933 20.1803 47.312 20.4135C47.6386 20.9988 48.3936 22.5978 48.665 23.0262H49.8781C50.1749 22.407 50.4464 21.8598 50.7857 21.2406C50.9808 20.8886 51.5237 19.7307 51.723 19.4804V24.5107C52.4068 24.549 53.0921 24.549 53.7758 24.5107V15.4597H51.7188L49.2885 19.9936C49.1433 19.8372 49.027 19.6563 48.945 19.4592L48.0246 17.7415C47.8168 17.3555 47.6005 16.9993 47.4138 16.6048L46.8243 15.4597H44.78C44.7291 16.0534 44.78 19.1581 44.78 20.0148C44.78 20.5705 44.746 24.341 44.78 24.5488L44.7672 24.5191ZM27.1869 18.9248C27.1869 20.6426 26.9706 22.3476 28.1327 23.6412C28.4715 23.9835 28.8783 24.251 29.3269 24.4263C29.7754 24.6016 30.2558 24.6809 30.7369 24.6591C31.2218 24.6946 31.7087 24.6256 32.1646 24.4565C32.6205 24.2875 33.0348 24.0224 33.3793 23.6794C34.5668 22.4833 34.359 20.5874 34.359 18.9248C34.3634 17.9633 34.0233 17.032 33.4005 16.2994C32.268 15.027 29.49 14.8998 28.1497 16.2994C27.5257 17.0316 27.1842 17.9628 27.1869 18.9248ZM29.3712 19.349C29.3712 18.2674 29.6215 17.1604 30.7751 17.1604C31.9287 17.1604 32.179 18.2504 32.179 19.349C32.179 20.6722 32.4123 22.8438 30.7751 22.8438C29.1379 22.8438 29.3712 20.6553 29.3712 19.349ZM13.8819 33.8161V36.0386C14.6306 36.036 15.3642 35.8277 16.0025 35.4363C16.5795 35.0654 16.9865 34.4816 17.135 33.8119C17.3429 33.0204 17.4414 32.2041 17.4276 31.3859C17.4276 31.0338 17.3725 28.8114 17.4658 28.7011C17.5591 28.5908 17.7542 28.6544 17.962 28.6544H19.1538C19.4465 28.6544 19.4762 28.5951 19.4762 28.8962C19.4762 29.9141 19.4338 35.7375 19.5016 35.9241H21.6223C21.6859 35.6484 21.6435 28.4084 21.6435 27.0809C21.6435 26.6568 21.529 26.8052 20.0573 26.8052C18.7212 26.8052 16.3715 26.7416 15.2603 26.8052C15.2009 27.0427 15.2603 30.3807 15.2221 30.9744C15.2228 31.6202 15.1646 32.2648 15.0482 32.9C14.9083 33.5362 14.3399 33.6847 13.8479 33.8119L13.8819 33.8161ZM24.5403 32.2002C24.4301 32.5268 22.6572 35.6654 22.6063 35.9114H25.0026C25.3547 35.0928 26.275 33.4132 26.6992 32.4844H27.6238C27.6238 33.0485 27.5602 35.6442 27.6577 35.9198H29.7784L29.859 26.8561C29.6087 26.8095 26.8434 26.8307 26.4192 26.8561C25.3504 26.8943 24.4258 27.0767 23.7896 27.6747C22.636 28.7605 22.6487 30.9744 23.9974 31.916C24.1629 32.0305 24.4428 32.1281 24.5615 32.2384L24.5403 32.2002ZM27.645 30.6351C27.0894 30.6816 26.5303 30.6659 25.9781 30.5885C25.8602 30.5857 25.7441 30.5584 25.6373 30.5082C25.5305 30.4581 25.4354 30.3862 25.358 30.2972C25.2805 30.2082 25.2225 30.104 25.1876 29.9913C25.1527 29.8786 25.1417 29.7599 25.1553 29.6427C25.1553 29.0277 25.5031 28.8453 26.0036 28.7138C26.5554 28.6486 27.1124 28.6387 27.6662 28.6841V30.6351H27.645ZM7.56229 34.0664C7.60874 33.868 7.6668 33.6726 7.73618 33.4811C7.92752 32.8805 8.04989 32.2601 8.10094 31.6319C8.1688 30.6267 8.12214 29.6851 8.16456 28.6629C8.82135 28.6227 9.47999 28.6227 10.1368 28.6629V34.0621L7.56229 34.0664Z" fill="white"/>
<path fill-rule="evenodd" clip-rule="evenodd" d="M31.4664 35.9156C32.5522 35.9495 34.1342 35.9156 35.2836 35.9156C36.6663 35.9156 38.3374 35.1903 38.3374 33.4938C38.3374 32.6455 38.278 32.0899 37.5952 31.4749C37.5232 31.4096 37.445 31.3514 37.3619 31.301L37.2474 31.2332L37.1116 31.1229C37.2855 30.7369 38.0744 30.7242 38.0744 29.0828C38.0805 28.7943 38.0237 28.5079 37.908 28.2435C37.7923 27.9791 37.6204 27.743 37.4043 27.5517C36.4415 26.7034 34.9274 26.8349 33.7186 26.8349C33.0018 26.8349 32.1917 26.801 31.4834 26.8349V35.9156H31.4664ZM33.6762 30.2492V28.6756C34.1553 28.6297 34.6384 28.644 35.114 28.7181C35.5381 28.8156 35.8774 28.9344 35.8817 29.4603C35.8817 30.4188 34.3463 30.3086 33.6677 30.2492H33.6762ZM33.6762 34.0664V32.1111C34.2245 32.0552 34.7779 32.0723 35.3218 32.162C35.818 32.2935 36.1701 32.4844 36.1701 33.0866C36.1741 33.3156 36.0938 33.5382 35.9445 33.7118C35.7951 33.8854 35.587 33.998 35.36 34.0282C34.7925 34.1102 34.2171 34.123 33.6465 34.0664H33.6762Z" fill="#007C35"/>
<path fill-rule="evenodd" clip-rule="evenodd" d="M38.4689 35.9156H40.7507L41.1748 34.7153C41.23 34.5499 41.2342 34.3675 41.3615 34.3336H44.0802L44.5806 35.9071H46.8964C46.8964 35.589 44.8648 30.0541 44.5552 29.121C44.4237 28.735 44.3134 28.3491 44.1607 27.9843C44.0081 27.6196 43.9275 27.2124 43.7748 26.8391H41.6202L41.0391 28.5102C40.6913 29.5112 39.7158 32.1747 39.4698 33.0273C39.3002 33.6126 38.5537 35.4703 38.4858 35.9198L38.4689 35.9156ZM41.8619 32.4971C41.8619 32.2596 42.3412 30.9108 42.4684 30.5079C42.5109 30.3722 42.5957 29.9947 42.689 29.9268C42.7689 30.1402 42.8355 30.3584 42.8883 30.58C43.1123 31.2112 43.302 31.854 43.4567 32.5056L41.8619 32.4971Z" fill="#007C35"/>
<path fill-rule="evenodd" clip-rule="evenodd" d="M53.9413 33.1078C53.2562 33.0559 52.5678 33.0644 51.8842 33.1333C51.7442 33.2393 51.7909 33.8119 51.2056 34.0876C50.9938 34.1813 50.7629 34.2239 50.5316 34.2121C50.3003 34.2003 50.075 34.1344 49.8738 34.0197C49.1867 33.5277 49.1952 32.4504 49.1952 31.424C49.1952 30.3976 49.1486 29.2779 49.8272 28.7732C50.0995 28.5795 50.4358 28.4978 50.7666 28.5452C51.0974 28.5926 51.3973 28.7653 51.6043 29.0277C51.7205 29.2132 51.805 29.4167 51.8545 29.6299H53.9243C53.8899 29.1348 53.745 28.6536 53.5002 28.2218C53.2959 27.8383 53.0056 27.5073 52.6519 27.2548C51.7589 26.7033 50.6838 26.528 49.6618 26.767C49.2192 26.8477 48.7997 27.0249 48.4332 27.2858C48.0667 27.5467 47.7622 27.8851 47.5411 28.277C47.0236 29.2016 47.0194 30.1474 47.0194 31.4071C46.988 31.9908 47.015 32.5762 47.1 33.1545C47.3248 34.1639 47.6047 34.8213 48.4487 35.4406C48.6296 35.5736 48.8299 35.678 49.0425 35.7502C49.1698 35.7926 49.2334 35.835 49.3564 35.8689C50.8281 36.2931 52.7961 36.0428 53.5553 34.4863C53.7697 34.0552 53.9007 33.5875 53.9413 33.1078Z" fill="#007C35"/>
</g>
<defs>
<clipPath id="clip0_1_3033">
<rect width="58.1953" height="40" fill="white"/>
</clipPath>
</defs>
</svg>
