<svg width="59" height="40" viewBox="0 0 59 40" fill="none" xmlns="http://www.w3.org/2000/svg">
<g clip-path="url(#clip0_6_2755)">
<path fill-rule="evenodd" clip-rule="evenodd" d="M1.84709 10.0889C0.663051 10.7123 0.00524902 11.9671 0.00524902 13.3052V36.0042C0.00524902 38.2134 1.79611 40.0042 4.00525 40.0042H54.1921C56.4012 40.0042 58.1921 38.2134 58.1921 36.0042V13.9118C58.1921 12.256 57.177 10.7733 55.6312 10.1799C45.5844 6.32276 29.0965 0 29.0965 0C29.0965 0 9.88832 5.85526 1.84709 10.0889ZM3.57878 38.5537C2.47421 38.5537 1.57878 37.6583 1.57878 36.5537V15.5298C1.57878 14.4253 2.47421 13.5298 3.57878 13.5298H54.75C55.8546 13.5298 56.75 14.4253 56.75 15.5298V36.5537C56.75 37.6583 55.8546 38.5537 54.75 38.5537H3.57878Z" fill="#007C35"/>
<path fill-rule="evenodd" clip-rule="evenodd" d="M5.91345 31.1356C5.89328 32.0567 5.68244 32.9636 5.29421 33.7992C5.06518 34.2233 5.03973 34.1045 4.48836 34.1045V37.6376H6.38848V35.941H11.5714V37.6376H13.4842V34.0961H12.3688C12.2839 34.0409 12.3136 34.1936 12.2882 33.9943V26.8561H6.00676C6.00676 27.5856 6.00676 28.3194 6.00676 29.0489C6.00676 29.2355 6.00676 30.9829 5.91345 31.1356ZM14.095 17.3046V24.5149H16.275V17.3046C16.3217 17.1816 16.3641 17.2156 16.538 17.2198H18.6205V15.4597H11.7368V17.2283H14.0059L14.0823 17.3174L14.095 17.3046ZM4.47564 18.963C4.47564 20.528 4.28902 22.3561 5.3239 23.5479C5.89991 24.1962 6.70671 24.5935 7.57181 24.6549C8.74666 24.7015 9.57372 24.587 10.282 24.0059C10.6044 23.7456 10.8627 23.4148 11.037 23.0389C11.2432 22.6271 11.3671 22.1791 11.4017 21.7199H9.34044C9.2132 21.9616 9.23865 22.3561 8.78483 22.6445C8.60421 22.7514 8.4022 22.8171 8.19325 22.8369C7.98429 22.8567 7.77353 22.8301 7.57605 22.759C6.47754 22.2924 6.65992 20.562 6.65992 19.3362C6.65992 18.488 6.83382 17.5379 7.53788 17.241C7.73262 17.1618 7.94302 17.1287 8.15269 17.1441C8.36235 17.1596 8.56562 17.2232 8.74666 17.3301C8.89286 17.4275 9.01828 17.5529 9.11565 17.6991C9.20338 17.8783 9.27711 18.0641 9.3362 18.2547H11.406C11.3665 17.8101 11.2396 17.3778 11.0327 16.9823C10.8531 16.6132 10.599 16.2854 10.2863 16.0195C8.93327 14.8659 5.59111 14.8956 4.73012 17.5252C4.57745 17.9958 4.49178 18.4855 4.47564 18.98V18.963ZM19.5536 24.5276H21.7251V21.4357C22.9975 21.3424 24.3166 21.6138 25.3896 20.7444C25.8362 20.3373 26.159 19.8126 26.3211 19.2305C26.4831 18.6483 26.4778 18.0323 26.3058 17.4531C26.1513 16.9154 25.8337 16.439 25.3969 16.0895C24.96 15.74 24.4255 15.5348 23.867 15.5021C22.4327 15.4069 20.9944 15.3843 19.5578 15.4342V24.5276H19.5536ZM21.7336 17.4404C21.7336 17.2749 21.7336 17.2665 21.9075 17.2665C22.8236 17.2665 24.2699 17.1519 24.219 18.4795C24.1809 19.3914 23.4556 19.6119 22.5776 19.6119C21.8651 19.6119 21.7294 19.6883 21.7294 19.4423V17.4404H21.7336ZM35.73 24.5191H37.5156C38.542 22.9583 39.6829 21.389 40.7305 19.8537C40.8408 19.6925 40.879 19.6034 40.9935 19.5568V24.5191H43.1735C43.2244 23.6709 43.1735 22.6657 43.1735 21.8089C43.1735 19.8622 43.1396 17.6355 43.1735 15.7226C43.1735 15.3579 43.1735 15.4257 42.8003 15.4342C41.1038 15.4342 41.5703 15.2179 41.002 16.045C40.8408 16.2782 40.7178 16.4691 40.5778 16.6854L38.3893 19.8706C38.2621 20.0488 38.0797 20.4093 37.9185 20.4772V15.4512H35.7427V24.5276L35.73 24.5191ZM44.7683 24.5191H46.8253V19.5653C47.0247 19.6883 47.1943 20.1803 47.3131 20.4135C47.6397 20.9988 48.3946 22.5978 48.6661 23.0262H49.8791C50.176 22.407 50.4474 21.8598 50.7867 21.2406C50.9818 20.8886 51.5247 19.7307 51.7241 19.4804V24.5107C52.4078 24.549 53.0931 24.549 53.7769 24.5107V15.4597H51.7198L49.2895 19.9936C49.1444 19.8372 49.028 19.6563 48.946 19.4592L48.0256 17.7415C47.8178 17.3555 47.6015 16.9993 47.4149 16.6048L46.8253 15.4597H44.781C44.7301 16.0534 44.781 19.1581 44.781 20.0148C44.781 20.5705 44.7471 24.341 44.781 24.5488L44.7683 24.5191ZM27.188 18.9248C27.188 20.6426 26.9717 22.3476 28.1338 23.6412C28.4726 23.9835 28.8794 24.251 29.3279 24.4263C29.7765 24.6016 30.2568 24.681 30.738 24.6591C31.2229 24.6947 31.7098 24.6256 32.1657 24.4565C32.6216 24.2875 33.0358 24.0225 33.3803 23.6794C34.5679 22.4833 34.3601 20.5874 34.3601 18.9248C34.3644 17.9633 34.0244 17.032 33.4015 16.2994C32.2691 15.027 29.491 14.8998 28.1507 16.2994C27.5267 17.0316 27.1852 17.9628 27.188 18.9248ZM29.3723 19.349C29.3723 18.2674 29.6225 17.1604 30.7761 17.1604C31.9298 17.1604 32.18 18.2505 32.18 19.349C32.18 20.6723 32.4133 22.8438 30.7761 22.8438C29.139 22.8438 29.3723 20.6553 29.3723 19.349ZM13.8829 33.8161V36.0386C14.6316 36.036 15.3653 35.8277 16.0036 35.4363C16.5806 35.0654 16.9876 34.4816 17.136 33.8119C17.344 33.0204 17.4424 32.2041 17.4287 31.3859C17.4287 31.0338 17.3735 28.8114 17.4668 28.7011C17.5601 28.5908 17.7552 28.6544 17.9631 28.6544H19.1549C19.4475 28.6544 19.4772 28.5951 19.4772 28.8962C19.4772 29.9141 19.4348 35.7375 19.5027 35.9241H21.6233C21.687 35.6484 21.6445 28.4084 21.6445 27.0809C21.6445 26.6568 21.53 26.8052 20.0583 26.8052C18.7223 26.8052 16.3726 26.7416 15.2613 26.8052C15.202 27.0427 15.2613 30.3807 15.2232 30.9744C15.2238 31.6203 15.1656 32.2648 15.0493 32.9C14.9093 33.5362 14.341 33.6847 13.849 33.8119L13.8829 33.8161ZM24.5414 32.2002C24.4311 32.5268 22.6582 35.6654 22.6073 35.9114H25.0037C25.3557 35.0928 26.2761 33.4132 26.7002 32.4844H27.6248C27.6248 33.0485 27.5612 35.6442 27.6588 35.9198H29.7794L29.86 26.8561C29.6098 26.8095 26.8444 26.8307 26.4203 26.8561C25.3515 26.8943 24.4269 27.0767 23.7907 27.6747C22.637 28.7605 22.6497 30.9744 23.9985 31.916C24.1639 32.0305 24.4438 32.1281 24.5626 32.2384L24.5414 32.2002ZM27.646 30.6351C27.0904 30.6816 26.5313 30.6659 25.9792 30.5885C25.8612 30.5857 25.7452 30.5584 25.6384 30.5083C25.5316 30.4581 25.4364 30.3862 25.359 30.2972C25.2816 30.2082 25.2235 30.104 25.1887 29.9913C25.1538 29.8786 25.1428 29.7599 25.1564 29.6427C25.1564 29.0277 25.5042 28.8453 26.0046 28.7138C26.5565 28.6486 27.1134 28.6387 27.6672 28.6841V30.6351H27.646ZM7.56333 34.0664C7.60978 33.868 7.66784 33.6726 7.73722 33.4811C7.92855 32.8805 8.05093 32.2601 8.10197 31.6319C8.16984 30.6267 8.12318 29.6851 8.16559 28.6629C8.82238 28.6227 9.48102 28.6227 10.1378 28.6629V34.0621L7.56333 34.0664Z" fill="#121212"/>
<path fill-rule="evenodd" clip-rule="evenodd" d="M31.4674 35.9156C32.5532 35.9495 34.1352 35.9156 35.2846 35.9156C36.6673 35.9156 38.3384 35.1903 38.3384 33.4938C38.3384 32.6455 38.279 32.0899 37.5961 31.4749C37.5241 31.4096 37.446 31.3514 37.3629 31.301L37.2483 31.2332L37.1126 31.1229C37.2865 30.7369 38.0754 30.7242 38.0754 29.0828C38.0815 28.7943 38.0247 28.5079 37.9089 28.2435C37.7932 27.9791 37.6214 27.743 37.4053 27.5517C36.4425 26.7034 34.9283 26.8349 33.7196 26.8349C33.0028 26.8349 32.1927 26.801 31.4844 26.8349V35.9156H31.4674ZM33.6771 30.2492V28.6756C34.1563 28.6297 34.6393 28.644 35.115 28.7181C35.5391 28.8156 35.8784 28.9344 35.8826 29.4603C35.8826 30.4188 34.3473 30.3086 33.6687 30.2492H33.6771ZM33.6771 34.0664V32.1111C34.2255 32.0552 34.7789 32.0723 35.3228 32.162C35.819 32.2935 36.171 32.4844 36.171 33.0866C36.1751 33.3156 36.0948 33.5382 35.9454 33.7118C35.796 33.8854 35.588 33.998 35.3609 34.0282C34.7934 34.1102 34.2181 34.123 33.6475 34.0664H33.6771Z" fill="#007C35"/>
<path fill-rule="evenodd" clip-rule="evenodd" d="M38.4698 35.9156H40.7517L41.1758 34.7153C41.231 34.5499 41.2352 34.3675 41.3624 34.3336H44.0811L44.5816 35.9071H46.8974C46.8974 35.589 44.8658 30.0541 44.5562 29.121C44.4247 28.735 44.3144 28.3491 44.1617 27.9843C44.009 27.6196 43.9284 27.2124 43.7758 26.8391H41.6212L41.0401 28.5102C40.6923 29.5112 39.7168 32.1747 39.4708 33.0273C39.3011 33.6126 38.5547 35.4703 38.4868 35.9198L38.4698 35.9156ZM41.8629 32.4971C41.8629 32.2596 42.3422 30.9108 42.4694 30.5079C42.5118 30.3722 42.5967 29.9947 42.69 29.9268C42.7699 30.1402 42.8365 30.3584 42.8893 30.58C43.1132 31.2112 43.303 31.854 43.4577 32.5056L41.8629 32.4971Z" fill="#007C35"/>
<path fill-rule="evenodd" clip-rule="evenodd" d="M53.9422 33.1078C53.2571 33.0559 52.5688 33.0644 51.8852 33.1333C51.7452 33.2393 51.7919 33.8119 51.2066 34.0876C50.9948 34.1813 50.7639 34.2239 50.5326 34.2121C50.3013 34.2003 50.076 34.1344 49.8748 34.0197C49.1877 33.5277 49.1962 32.4504 49.1962 31.424C49.1962 30.3976 49.1495 29.2779 49.8281 28.7732C50.1004 28.5795 50.4368 28.4978 50.7676 28.5452C51.0984 28.5926 51.3983 28.7653 51.6053 29.0277C51.7215 29.2132 51.806 29.4167 51.8555 29.6299H53.9253C53.8909 29.1348 53.746 28.6536 53.5011 28.2218C53.2969 27.8383 53.0065 27.5073 52.6529 27.2548C51.7598 26.7033 50.6847 26.528 49.6627 26.767C49.2201 26.8477 48.8007 27.0249 48.4342 27.2858C48.0677 27.5467 47.7631 27.8851 47.5421 28.277C47.0246 29.2016 47.0204 30.1474 47.0204 31.4071C46.9889 31.9908 47.0159 32.5762 47.101 33.1545C47.3258 34.1639 47.6057 34.8213 48.4497 35.4406C48.6306 35.5736 48.8309 35.678 49.0435 35.7502C49.1707 35.7926 49.2344 35.835 49.3574 35.8689C50.8291 36.2931 52.7971 36.0428 53.5563 34.4863C53.7707 34.0552 53.9017 33.5875 53.9422 33.1078Z" fill="#007C35"/>
</g>
<defs>
<clipPath id="clip0_6_2755">
<rect width="58.1953" height="40" fill="white" transform="translate(0.000976562)"/>
</clipPath>
</defs>
</svg>
