<svg width="44" height="44" viewBox="0 0 44 44" fill="none" xmlns="http://www.w3.org/2000/svg">
<path d="M29.3333 41.7084H14.6667C7.975 41.7084 4.125 37.8584 4.125 31.1667V12.8334C4.125 6.14169 7.975 2.29169 14.6667 2.29169H29.3333C36.025 2.29169 39.875 6.14169 39.875 12.8334V31.1667C39.875 37.8584 36.025 41.7084 29.3333 41.7084ZM14.6667 5.04169C9.42333 5.04169 6.875 7.59002 6.875 12.8334V31.1667C6.875 36.41 9.42333 38.9584 14.6667 38.9584H29.3333C34.5767 38.9584 37.125 36.41 37.125 31.1667V12.8334C37.125 7.59002 34.5767 5.04169 29.3333 5.04169H14.6667Z" fill="#121212"/>
<path d="M33.9166 16.9583H30.25C27.4633 16.9583 25.2083 14.7033 25.2083 11.9167V8.25C25.2083 7.49833 25.8316 6.875 26.5833 6.875C27.335 6.875 27.9583 7.49833 27.9583 8.25V11.9167C27.9583 13.1817 28.985 14.2083 30.25 14.2083H33.9166C34.6683 14.2083 35.2916 14.8317 35.2916 15.5833C35.2916 16.335 34.6683 16.9583 33.9166 16.9583Z" fill="#5AA02C"/>
<path d="M22 25.2083H14.6667C13.915 25.2083 13.2917 24.585 13.2917 23.8333C13.2917 23.0816 13.915 22.4583 14.6667 22.4583H22C22.7517 22.4583 23.375 23.0816 23.375 23.8333C23.375 24.585 22.7517 25.2083 22 25.2083Z" fill="#5AA02C"/>
<path d="M29.3334 32.5417H14.6667C13.915 32.5417 13.2917 31.9184 13.2917 31.1667C13.2917 30.415 13.915 29.7917 14.6667 29.7917H29.3334C30.085 29.7917 30.7084 30.415 30.7084 31.1667C30.7084 31.9184 30.085 32.5417 29.3334 32.5417Z" fill="#5AA02C"/>
</svg>
