<svg width="45" height="44" viewBox="0 0 45 44" fill="none" xmlns="http://www.w3.org/2000/svg">
<path d="M33.9616 41.7084H26.6283C22.1916 41.7084 19.7533 39.27 19.7533 34.8334V9.16669C19.7533 4.73002 22.1916 2.29169 26.6283 2.29169H33.9616C38.3983 2.29169 40.8366 4.73002 40.8366 9.16669V34.8334C40.8366 39.27 38.38 41.7084 33.9616 41.7084ZM26.6283 5.04169C23.7316 5.04169 22.5033 6.27002 22.5033 9.16669V34.8334C22.5033 37.73 23.7316 38.9584 26.6283 38.9584H33.9616C36.8583 38.9584 38.0866 37.73 38.0866 34.8334V9.16669C38.0866 6.27002 36.8583 5.04169 33.9616 5.04169H26.6283Z" fill="#121212"/>
<path d="M30.295 12.375H21.1283C20.3766 12.375 19.7533 11.7517 19.7533 11C19.7533 10.2483 20.3766 9.625 21.1283 9.625H30.295C31.0466 9.625 31.67 10.2483 31.67 11C31.67 11.7517 31.0466 12.375 30.295 12.375Z" fill="#121212"/>
<path d="M28.4616 34.375H21.1283C20.3766 34.375 19.7533 33.7517 19.7533 33C19.7533 32.2483 20.3766 31.625 21.1283 31.625H28.4616C29.2133 31.625 29.8366 32.2483 29.8366 33C29.8366 33.7517 29.2133 34.375 28.4616 34.375Z" fill="#121212"/>
<path d="M30.295 27.0417C30.2767 27.0417 30.2767 27.0417 30.295 27.0417L21.11 26.95C20.3583 26.95 19.735 26.3267 19.7533 25.5567C19.7533 24.805 20.3767 24.2 21.1283 24.2C21.1283 24.2 21.1283 24.2 21.1467 24.2L30.3133 24.2917C31.065 24.2917 31.6883 24.915 31.67 25.685C31.6517 26.4367 31.0467 27.0417 30.295 27.0417Z" fill="#121212"/>
<path d="M26.6283 19.7083H21.1283C20.3766 19.7083 19.7533 19.085 19.7533 18.3333C19.7533 17.5816 20.3766 16.9583 21.1283 16.9583H26.6283C27.38 16.9583 28.0033 17.5816 28.0033 18.3333C28.0033 19.085 27.38 19.7083 26.6283 19.7083Z" fill="#121212"/>
<path d="M10.1649 41.6534C8.49661 41.6534 6.91995 40.6267 5.83828 38.83L4.33495 36.3367C3.78495 35.42 3.36328 33.9167 3.36328 32.8534V9.07502C3.36328 5.33502 6.40662 2.29169 10.1466 2.29169C13.8866 2.29169 16.93 5.33502 16.93 9.07502V32.835C16.93 33.8984 16.5083 35.4017 15.9583 36.3184L14.4549 38.8117C13.4099 40.6267 11.8333 41.6534 10.1649 41.6534ZM10.1649 5.04169C7.94661 5.04169 6.13161 6.85669 6.13161 9.07502V32.835C6.13161 33.4034 6.40661 34.4117 6.69995 34.9067L8.20328 37.4C8.77162 38.3534 9.48661 38.885 10.1649 38.885C10.8433 38.885 11.5583 38.335 12.1266 37.4L13.6299 34.9067C13.9233 34.4117 14.1983 33.4034 14.1983 32.835V9.07502C14.1983 6.85669 12.3833 5.04169 10.1649 5.04169Z" fill="#5AA02C"/>
<path d="M15.5733 14.2083H4.73828C3.98661 14.2083 3.36328 13.585 3.36328 12.8333C3.36328 12.0816 3.98661 11.4583 4.73828 11.4583H15.5733C16.3249 11.4583 16.9483 12.0816 16.9483 12.8333C16.9483 13.585 16.3249 14.2083 15.5733 14.2083Z" fill="#5AA02C"/>
</svg>
