<svg width="45" height="44" viewBox="0 0 45 44" fill="none" xmlns="http://www.w3.org/2000/svg">
<path d="M24.3779 42.625H19.7579C18.4746 42.625 17.3196 42.0749 16.5496 41.1399C15.8713 40.2966 15.6146 39.2149 15.8529 38.1883L16.6046 34.8701C16.7513 34.2467 17.3013 33.8066 17.9429 33.8066H26.1929C26.8346 33.8066 27.3846 34.2467 27.5312 34.8701L28.2829 38.1883C28.5213 39.2883 28.3013 40.3516 27.6229 41.195C26.8713 42.0933 25.6979 42.625 24.3779 42.625ZM19.0429 36.5201L18.5296 38.7751C18.4746 39.0501 18.5846 39.27 18.6946 39.3983C18.9329 39.6917 19.3179 39.8567 19.7579 39.8567H24.3779C24.8546 39.8567 25.2579 39.71 25.4779 39.435C25.6246 39.2517 25.6613 39.0317 25.6063 38.7567L25.0929 36.5017H19.0429V36.5201Z" fill="white"/>
<path d="M26.1933 36.5201C25.8083 36.5201 25.4417 36.3734 25.1667 36.0618C24.6717 35.4934 24.7083 34.6317 25.2767 34.1183L28.4483 31.2949C29.7133 30.1766 29.6583 29.9018 28.7233 28.7284L23.1317 21.6333C22.82 21.2483 22.4533 21.0283 22.0683 21.0283C21.6833 21.0283 21.3167 21.2483 21.005 21.6333L15.4133 28.7284C14.4233 29.9934 14.4417 30.2684 15.6517 31.2584L18.86 34.1183C19.4283 34.6133 19.4833 35.4934 18.97 36.0618C18.4567 36.6301 17.595 36.685 17.0267 36.1716L13.855 33.3482C11.545 31.4599 11.3433 29.4433 13.25 27.0233L18.8417 19.9283C19.6667 18.8833 20.84 18.2783 22.0683 18.2783C23.2967 18.2783 24.47 18.8833 25.295 19.9283L30.8867 27.0233C32.775 29.4067 32.5917 31.3132 30.2817 33.3482L27.11 36.1716C26.835 36.41 26.505 36.5201 26.1933 36.5201Z" fill="white"/>
<path d="M22.0679 26.4C21.3162 26.4 20.6929 25.7767 20.6929 25.025V20.3867C20.6929 19.635 21.3162 19.0117 22.0679 19.0117C22.8195 19.0117 23.4429 19.635 23.4429 20.3867V25.025C23.4429 25.795 22.8195 26.4 22.0679 26.4Z" fill="white"/>
<path d="M22.0501 11.5317C21.1334 11.5317 20.2167 11.1834 19.5201 10.4867L18.09 9.05678C16.6967 7.66345 16.6967 5.3901 18.09 3.99676L19.5201 2.56682C20.9134 1.17349 23.1867 1.17349 24.58 2.56682L26.0101 3.99676C27.4034 5.3901 27.4034 7.66345 26.0101 9.05678L24.58 10.4867C23.8834 11.1834 22.9667 11.5317 22.0501 11.5317ZM22.0501 4.27181C21.8301 4.27181 21.6284 4.34515 21.4634 4.51015L20.0334 5.94009C19.8867 6.08676 19.795 6.30677 19.795 6.52677C19.795 6.74677 19.8867 6.94845 20.0334 7.11345L21.4634 8.54339C21.7751 8.85506 22.3251 8.85506 22.6367 8.54339L24.0667 7.11345C24.2134 6.96678 24.3051 6.74677 24.3051 6.52677C24.3051 6.30677 24.2134 6.10509 24.0667 5.94009L22.6367 4.51015C22.4717 4.36348 22.2701 4.27181 22.0501 4.27181Z" fill="#5AA02C"/>
<path d="M37.725 25.7769H35.7083C33.7283 25.7769 32.1333 24.1634 32.1333 22.2018V20.1851C32.1333 18.2051 33.7466 16.6101 35.7083 16.6101H37.725C39.705 16.6101 41.3 18.2235 41.3 20.1851V22.2018C41.3 24.1818 39.6866 25.7769 37.725 25.7769ZM35.7083 19.3601C35.25 19.3601 34.8833 19.7268 34.8833 20.1851V22.2018C34.8833 22.6601 35.25 23.0269 35.7083 23.0269H37.725C38.1833 23.0269 38.55 22.6601 38.55 22.2018V20.1851C38.55 19.7268 38.1833 19.3601 37.725 19.3601H35.7083V19.3601Z" fill="#5AA02C"/>
<path d="M8.39166 25.7769H6.37498C4.39498 25.7769 2.79999 24.1634 2.79999 22.2018V20.1851C2.79999 18.2051 4.41332 16.6101 6.37498 16.6101H8.39166C10.3717 16.6101 11.9667 18.2235 11.9667 20.1851V22.2018C11.9667 24.1818 10.3533 25.7769 8.39166 25.7769ZM6.37498 19.3601C5.91665 19.3601 5.54999 19.7268 5.54999 20.1851V22.2018C5.54999 22.6601 5.91665 23.0269 6.37498 23.0269H8.39166C8.84999 23.0269 9.21665 22.6601 9.21665 22.2018V20.1851C9.21665 19.7268 8.84999 19.3601 8.39166 19.3601H6.37498V19.3601Z" fill="#5AA02C"/>
<path d="M34.0403 19.8916C33.692 19.8916 33.3437 19.7633 33.0687 19.4883L23.352 9.77164C22.8203 9.23998 22.8203 8.35998 23.352 7.82832C23.8837 7.29665 24.7637 7.29665 25.2953 7.82832L35.012 17.545C35.5437 18.0766 35.5437 18.9566 35.012 19.4883C34.737 19.7633 34.3887 19.8916 34.0403 19.8916Z" fill="#5AA02C"/>
<path d="M10.0598 19.8916C9.71147 19.8916 9.36314 19.7633 9.08814 19.4883C8.55648 18.9566 8.55648 18.0766 9.08814 17.545L18.8048 7.82832C19.3365 7.29665 20.2165 7.29665 20.7481 7.82832C21.2798 8.35998 21.2798 9.23998 20.7481 9.77164L11.0315 19.4883C10.7565 19.7633 10.4081 19.8916 10.0598 19.8916Z" fill="#5AA02C"/>
</svg>
