<svg width="20" height="20" viewBox="0 0 20 20" fill="none" xmlns="http://www.w3.org/2000/svg">
<path d="M16.6667 10.1666V11.5833C16.6667 14.2083 15.1667 15.3333 12.9167 15.3333H5.41675C3.16675 15.3333 1.66675 14.2083 1.66675 11.5833V7.08333C1.66675 4.45833 3.16675 3.33333 5.41675 3.33333H7.66675C7.55841 3.64999 7.50008 3.99999 7.50008 4.37499V7.62502C7.50008 8.43335 7.76675 9.11667 8.24175 9.59167C8.71675 10.0667 9.40008 10.3333 10.2084 10.3333V11.4917C10.2084 11.9167 10.6917 12.175 11.0501 11.9416L13.4584 10.3333H15.6251C16.0001 10.3333 16.3501 10.275 16.6667 10.1666Z" stroke="#FEC34A" stroke-width="1.5" stroke-miterlimit="10" stroke-linecap="round" stroke-linejoin="round"/>
<path d="M18.3333 4.37501V7.62503C18.3333 8.86669 17.7 9.79996 16.6667 10.1666C16.35 10.275 16 10.3334 15.625 10.3334H13.4583L11.05 11.9416C10.6917 12.175 10.2083 11.9167 10.2083 11.4917V10.3334C9.4 10.3334 8.71667 10.0667 8.24167 9.59168C7.76667 9.11668 7.5 8.43336 7.5 7.62503V4.37501C7.5 4.00001 7.55833 3.65001 7.66667 3.33334C8.03333 2.30001 8.96667 1.66667 10.2083 1.66667H15.625C17.25 1.66667 18.3333 2.75001 18.3333 4.37501Z" stroke="#FEC34A" stroke-width="1.5" stroke-miterlimit="10" stroke-linecap="round" stroke-linejoin="round"/>
<path d="M6.16675 18.3333H12.1667" stroke="#FEC34A" stroke-width="1.5" stroke-miterlimit="10" stroke-linecap="round" stroke-linejoin="round"/>
<path d="M9.16675 15.3334V18.3333" stroke="#FEC34A" stroke-width="1.5" stroke-miterlimit="10" stroke-linecap="round" stroke-linejoin="round"/>
<path d="M15.4129 6.04167H15.4204" stroke="#FEC34A" stroke-width="1.5" stroke-linecap="round" stroke-linejoin="round"/>
<path d="M13.0797 6.04167H13.0872" stroke="#FEC34A" stroke-width="1.5" stroke-linecap="round" stroke-linejoin="round"/>
<path d="M10.7462 6.04167H10.7537" stroke="#FEC34A" stroke-width="1.5" stroke-linecap="round" stroke-linejoin="round"/>
</svg>
