<svg width="33" height="32" viewBox="0 0 33 32" fill="none" xmlns="http://www.w3.org/2000/svg">
<path d="M15.3438 0.0374908C12.0875 0.31249 9.04375 1.50624 6.5625 3.48749C4.68125 4.99374 3.15625 6.89999 2.10625 9.06249C0.637502 12.0812 0.162502 15.5187 0.756252 18.8375C1.34375 22.1187 2.94375 25.1062 5.38125 27.4687C7.79375 29.8125 10.7938 31.3 14.1563 31.825C15.4063 32.0187 17.5938 32.0187 18.8438 31.825C20.5563 31.5562 21.9813 31.1062 23.5313 30.3437C25.1063 29.5687 26.3875 28.6625 27.65 27.4437C29.0063 26.125 29.9938 24.7625 30.85 23.0312C31.6125 21.4875 32.075 20 32.35 18.1875C32.4875 17.2937 32.5125 14.8875 32.3875 14.0312C31.85 10.3187 30.3688 7.31249 27.8125 4.74374C26.4313 3.36249 25.225 2.48749 23.5438 1.66249C21.3438 0.574991 19.3063 0.0812416 16.8438 0.0374908C16.1938 0.024992 15.5188 0.024992 15.3438 0.0374908ZM22.8563 7.95624L25.8438 10.9375V16.2375C25.8438 20.3375 25.825 21.625 25.7625 21.9375C25.3688 23.9062 24.15 25.5125 22.4063 26.375C21.6875 26.7312 21.0813 26.9062 20.2813 27C19.55 27.0812 13.45 27.0812 12.7188 27C11.0563 26.8125 9.5375 25.9875 8.53125 24.7312C7.725 23.7187 7.2875 22.6187 7.15 21.2312C7.1 20.7125 7.18125 20.4812 7.475 20.3437C7.65625 20.2562 7.70625 20.2562 7.9 20.3375C8.18125 20.4562 8.225 20.5562 8.28125 21.1812C8.3875 22.475 8.9375 23.6375 9.85 24.5062C10.5188 25.1375 11.1875 25.5062 12.1188 25.7687C12.5688 25.8937 12.7625 25.9 16.0938 25.925C18.4188 25.9375 19.7938 25.925 20.1875 25.875C21.3 25.75 22.3125 25.2875 23.1 24.5437C23.8063 23.8812 24.2375 23.1875 24.5438 22.2062L24.7188 21.6562L24.7375 16.6687L24.7563 11.6875H23.3625C22.3375 11.6875 21.875 11.6625 21.625 11.5937C20.7625 11.3625 19.9625 10.75 19.5375 9.98124C19.175 9.33749 19.125 9.02499 19.125 7.44999V6.05624L15.8625 6.07499C12.7688 6.09999 12.5688 6.10624 12.1188 6.23124C11.1875 6.49374 10.5188 6.86249 9.85 7.49374C9.18125 8.13124 8.75 8.83749 8.45625 9.79374L8.2875 10.3437L8.25 14.7687L8.21875 19.2L8.06875 19.3187C7.85 19.4937 7.49375 19.475 7.30625 19.275L7.15625 19.1125V14.7625C7.15625 10.175 7.15625 10.175 7.45 9.24999C8.1625 7.00624 10.2625 5.28749 12.6313 5.00624C12.8875 4.97499 14.6188 4.95624 16.4813 4.96249L19.875 4.96874L22.8563 7.95624ZM13.0625 14.7937C13.6875 15.075 14.125 15.8375 14.0375 16.4875C13.9563 17.1062 13.4313 17.7062 12.825 17.875C12.7 17.9062 12.275 17.9375 11.8938 17.9375H11.1875V18.6812C11.1875 19.3937 11.1813 19.4375 11.025 19.6187C10.7688 19.925 10.325 19.875 10.1375 19.5187C10.0813 19.425 10.0625 18.7437 10.0625 17.2062C10.0625 14.8 10.0625 14.8125 10.4563 14.6875C10.5688 14.6562 11.1375 14.6375 11.7188 14.6437C12.625 14.6625 12.825 14.6812 13.0625 14.7937ZM17.4313 14.775C17.9813 14.9812 18.4625 15.4562 18.6563 16C18.725 16.1937 18.75 16.5375 18.75 17.275C18.75 18.2187 18.7375 18.3 18.5875 18.625C18.3938 19.05 18.0625 19.3937 17.6563 19.6125C17.3563 19.775 17.3 19.7812 16.2125 19.8L15.0813 19.825L14.9188 19.625L14.75 19.425V17.25V15.075L14.9063 14.8812C14.9938 14.7812 15.1313 14.6812 15.2063 14.6625C15.525 14.5937 17.1563 14.675 17.4313 14.775ZM22.7875 14.8312C22.9875 15.0687 22.9875 15.3937 22.7813 15.5937C22.6375 15.7437 22.6063 15.75 21.6875 15.75H20.75V16.1812V16.6187L21.6813 16.6375C22.5688 16.6562 22.625 16.6625 22.775 16.8062C22.9938 17.0125 23 17.3812 22.7813 17.5937C22.6375 17.7437 22.6063 17.75 21.6875 17.75H20.75V18.625C20.75 19.475 20.7438 19.5125 20.5938 19.6562C20.3938 19.8625 20.0688 19.8625 19.8313 19.6625L19.6563 19.5125V17.2625V15.0125L19.8063 14.85C19.8875 14.7625 20.0125 14.6812 20.0875 14.6687C20.1563 14.65 20.7625 14.6437 21.425 14.6437L22.6375 14.6562L22.7875 14.8312Z" fill="#EC4040"/>
<path d="M11.1875 16.275V16.8125H11.8813C12.5625 16.8125 12.575 16.8125 12.7563 16.6313C12.975 16.4063 12.9875 16.1938 12.7875 15.9563C12.6438 15.7875 12.6125 15.7813 11.9125 15.7625L11.1875 15.7375V16.275Z" fill="#EC4040"/>
<path d="M15.875 17.2125V18.6875H16.4563C17.1063 18.6875 17.3563 18.5875 17.5313 18.2562C17.6625 17.9937 17.6688 16.5125 17.5313 16.25C17.3563 15.9062 17.1125 15.8 16.4625 15.7625L15.875 15.7312V17.2125Z" fill="#EC4040"/>
</svg>
