<svg width="300" height="13" viewBox="0 0 300 13" fill="none" xmlns="http://www.w3.org/2000/svg">
<path d="M115.192 8.19197L290.639 8.192C295.55 8.192 299.569 4.8 299.569 0L298.357 -5.3153e-08C299.569 0 294.913 6.912 290.639 6.912L115.192 6.912C112.002 6.912 108.494 8.25597 106.899 11.264C105.305 8.25597 101.796 6.912 98.6071 6.912L8.93005 6.91198C4.65631 6.91198 1.40332 4.03199 1.21194 -9.36955e-06L-6.10352e-05 -9.4227e-06C-6.12443e-05 4.79999 4.01843 8.19197 8.93005 8.19197L98.6071 8.19197C101.541 8.19197 104.731 9.40797 106.198 12.672L107.601 12.672C109.068 9.40797 112.257 8.19197 115.192 8.19197Z" fill="#80B122"/>
</svg>
