<svg width="1039" height="13" viewBox="0 0 1039 13" fill="none" xmlns="http://www.w3.org/2000/svg">
<path d="M115.969 8.19196L1030.04 8.192C1034.97 8.192 1039 4.8 1039 0L1037.78 -5.3153e-08C1037.78 4.032 1034.33 6.912 1030.04 6.912L115.969 6.91199C112.769 6.91199 109.249 8.25596 107.649 11.264C106.049 8.25596 102.529 6.91199 99.3293 6.91199L9.35266 6.91197C5.0647 6.91197 1.80066 4.03198 1.60864 -2.23823e-05L0.392578 -2.24355e-05C0.392578 4.79998 4.42468 8.19196 9.35266 8.19196L99.3293 8.19196C102.273 8.19196 105.473 9.40796 106.945 12.672L108.353 12.672C109.825 9.40796 113.025 8.19196 115.969 8.19196Z" fill="#80B122"/>
</svg>
