<svg width="57" height="56" viewBox="0 0 57 56" fill="none" xmlns="http://www.w3.org/2000/svg">
<rect x="0.5" width="56" height="56" rx="28" fill="#5AA02C"/>
<path d="M42.5 36.862C42.5 37.366 42.3878 37.884 42.1495 38.388C41.9111 38.892 41.6027 39.368 41.196 39.816C40.509 40.572 39.7519 41.118 38.8966 41.468C38.0553 41.818 37.144 42 36.1625 42C34.7324 42 33.2041 41.664 31.5916 40.978C29.9792 40.292 28.3668 39.368 26.7684 38.206C25.156 37.03 23.6277 35.728 22.1695 34.286C20.7253 32.83 19.4214 31.304 18.2576 29.708C17.1079 28.112 16.1825 26.516 15.5095 24.934C14.8365 23.338 14.5 21.812 14.5 20.356C14.5 19.404 14.6683 18.494 15.0048 17.654C15.3413 16.8 15.8741 16.016 16.6172 15.316C17.5145 14.434 18.496 14 19.5336 14C19.9261 14 20.3187 14.084 20.6693 14.252C21.0338 14.42 21.3563 14.672 21.6087 15.036L24.8615 19.614C25.1139 19.964 25.2962 20.286 25.4224 20.594C25.5486 20.888 25.6187 21.182 25.6187 21.448C25.6187 21.784 25.5205 22.12 25.3242 22.442C25.142 22.764 24.8756 23.1 24.5391 23.436L23.4735 24.542C23.3192 24.696 23.2491 24.878 23.2491 25.102C23.2491 25.214 23.2631 25.312 23.2912 25.424C23.3333 25.536 23.3753 25.62 23.4034 25.704C23.6557 26.166 24.0904 26.768 24.7073 27.496C25.3383 28.224 26.0113 28.966 26.7404 29.708C27.4975 30.45 28.2266 31.136 28.9697 31.766C29.6988 32.382 30.3017 32.802 30.7784 33.054C30.8485 33.082 30.9326 33.124 31.0308 33.166C31.143 33.208 31.2551 33.222 31.3813 33.222C31.6197 33.222 31.802 33.138 31.9562 32.984L33.0218 31.934C33.3723 31.584 33.7088 31.318 34.0313 31.15C34.3538 30.954 34.6763 30.856 35.0268 30.856C35.2932 30.856 35.5736 30.912 35.8821 31.038C36.1905 31.164 36.513 31.346 36.8635 31.584L41.5045 34.874C41.8691 35.126 42.1214 35.42 42.2757 35.77C42.4159 36.12 42.5 36.47 42.5 36.862Z" stroke="white" stroke-width="1.5" stroke-miterlimit="10"/>
</svg>
