<svg width="22" height="37" viewBox="0 0 22 37" fill="none" xmlns="http://www.w3.org/2000/svg">
<g clip-path="url(#clip0_2012_1975)">
<path d="M18.9004 29.9863C18.8004 29.9863 18.7004 29.9863 18.6004 29.9863C15.4004 29.5863 12.2004 28.4863 9.50043 26.7863C7.00043 25.1863 4.80043 22.9863 3.20043 20.4863C1.40043 17.7863 0.300427 14.5863 0.000427246 11.3863C0.000427246 10.5863 0.200427 9.78633 0.700427 9.18633C1.20043 8.58633 1.90043 8.18633 2.70043 8.08633C2.80043 8.08633 2.90043 8.08633 3.00043 8.08633H6.00043C7.50043 8.08633 8.80043 9.18633 9.00043 10.6863C9.10043 11.5863 9.30043 12.4863 9.60043 13.2863C10.0004 14.3863 9.70043 15.5863 8.90043 16.4863L8.20043 17.1863C9.40043 18.9863 10.9004 20.5863 12.8004 21.7863L13.5004 21.0863C14.3004 20.2863 15.6004 19.9863 16.7004 20.3863C17.5004 20.6863 18.4004 20.8863 19.3004 20.9863C20.8004 21.1863 21.9004 22.4863 21.9004 23.9863V26.9863C21.9004 27.7863 21.6004 28.5863 21.0004 29.0863C20.4004 29.5863 19.7004 29.9863 18.9004 29.9863ZM6.00043 10.0863H3.00043C2.70043 10.0863 2.40043 10.2863 2.20043 10.4863C2.10043 10.6863 2.00043 10.8863 2.00043 11.1863C2.30043 14.0863 3.30043 16.8863 4.90043 19.3863C6.40043 21.6863 8.30043 23.6863 10.6004 25.0863C13.1004 26.6863 15.9004 27.6863 18.8004 27.9863C19.2004 27.9863 19.4004 27.8863 19.6004 27.6863C19.8004 27.4863 19.9004 27.2863 19.9004 26.9863V23.9863C19.9004 23.4863 19.5004 23.0863 19.0004 22.9863C18.0004 22.8863 17.0004 22.5863 16.0004 22.1863C15.6004 22.0863 15.2004 22.0863 14.9004 22.3863L13.6004 23.6863C13.3004 23.9863 12.8004 24.0863 12.4004 23.8863C9.70043 22.3863 7.50043 20.1863 6.00043 17.4863C5.90043 17.0863 6.00043 16.5863 6.30043 16.2863L7.60043 14.9863C7.80043 14.7863 7.90043 14.2863 7.80043 13.9863C7.40043 12.9863 7.20043 11.9863 7.00043 10.9863C7.00043 10.4863 6.50043 10.0863 6.00043 10.0863ZM17.9004 17.0863C17.4004 17.0863 17.0004 16.7863 16.9004 16.2863C16.6004 14.6863 15.3004 13.4863 13.7004 13.0863C13.2004 12.9863 12.8004 12.4863 12.9004 11.8863C13.0004 11.3863 13.5004 10.9863 14.1004 11.0863C16.5004 11.5863 18.4004 13.3863 18.8004 15.7863C18.9004 16.2863 18.6004 16.8863 18.0004 16.9863C18.0004 16.9863 18.0004 17.0863 17.9004 17.0863ZM21.9004 16.9863C21.4004 16.9863 21.0004 16.5863 20.9004 16.0863C20.5004 12.3863 17.6004 9.48633 13.8004 8.98633C13.3004 8.88633 12.9004 8.38633 12.9004 7.88633C12.9004 7.38633 13.5004 6.98633 14.0004 6.98633C18.7004 7.48633 22.3004 11.0863 22.8004 15.7863C22.9004 16.2863 22.5004 16.7863 21.9004 16.8863C22.0004 16.9863 21.9004 16.9863 21.9004 16.9863Z" fill="#5AA02C"/>
</g>
<defs>
<clipPath id="clip0_2012_1975">
<rect width="22" height="36" fill="white" transform="translate(0.000427246 0.986328)"/>
</clipPath>
</defs>
</svg>
