<svg width="22" height="37" viewBox="0 0 22 37" fill="none" xmlns="http://www.w3.org/2000/svg">
<g clip-path="url(#clip0_2012_1951)">
<path fill-rule="evenodd" clip-rule="evenodd" d="M11.0004 9.98633C6.02986 9.98633 2.00043 14.0158 2.00043 18.9863C2.00043 23.9569 6.02986 27.9863 11.0004 27.9863C15.971 27.9863 20.0004 23.9569 20.0004 18.9863C20.0004 14.0158 15.971 9.98633 11.0004 9.98633ZM0.000427246 18.9863C0.000427246 12.9112 4.92529 7.98633 11.0004 7.98633C17.0756 7.98633 22.0004 12.9112 22.0004 18.9863C22.0004 25.0615 17.0756 29.9863 11.0004 29.9863C4.92529 29.9863 0.000427246 25.0615 0.000427246 18.9863Z" fill="#5AA02C"/>
<path fill-rule="evenodd" clip-rule="evenodd" d="M11.0004 11.9863C11.5527 11.9863 12.0004 12.434 12.0004 12.9863V18.3683L15.4476 20.0919C15.9416 20.3389 16.1418 20.9396 15.8949 21.4335C15.6479 21.9275 15.0472 22.1277 14.5532 21.8808L10.5532 19.8808C10.2144 19.7114 10.0004 19.3651 10.0004 18.9863V12.9863C10.0004 12.434 10.4481 11.9863 11.0004 11.9863Z" fill="#5AA02C"/>
</g>
<defs>
<clipPath id="clip0_2012_1951">
<rect width="22" height="36" fill="white" transform="translate(0.000427246 0.986328)"/>
</clipPath>
</defs>
</svg>
