<svg width="25" height="24" viewBox="0 0 25 24" fill="none" xmlns="http://www.w3.org/2000/svg">
<path d="M18.64 21.6202C17.76 21.8802 16.72 22.0002 15.5 22.0002H9.49998C8.27998 22.0002 7.23999 21.8802 6.35999 21.6202C6.57999 19.0202 9.24998 16.9702 12.5 16.9702C15.75 16.9702 18.42 19.0202 18.64 21.6202Z" stroke="white" stroke-width="1.5" stroke-linecap="round" stroke-linejoin="round"/>
<path d="M15.5 2.00024H9.5C4.5 2.00024 2.5 4.00024 2.5 9.00024V15.0002C2.5 18.7802 3.64 20.8502 6.36 21.6202C6.58 19.0202 9.25 16.9702 12.5 16.9702C15.75 16.9702 18.42 19.0202 18.64 21.6202C21.36 20.8502 22.5 18.7802 22.5 15.0002V9.00024C22.5 4.00024 20.5 2.00024 15.5 2.00024ZM12.5 14.1702C10.52 14.1702 8.92 12.5603 8.92 10.5803C8.92 8.60026 10.52 7.00024 12.5 7.00024C14.48 7.00024 16.08 8.60026 16.08 10.5803C16.08 12.5603 14.48 14.1702 12.5 14.1702Z" stroke="white" stroke-width="1.5" stroke-linecap="round" stroke-linejoin="round"/>
<path d="M16.08 10.5803C16.08 12.5603 14.48 14.1702 12.5 14.1702C10.52 14.1702 8.91998 12.5603 8.91998 10.5803C8.91998 8.60026 10.52 7.00024 12.5 7.00024C14.48 7.00024 16.08 8.60026 16.08 10.5803Z" stroke="white" stroke-width="1.5" stroke-linecap="round" stroke-linejoin="round"/>
</svg>
