<svg width="30" height="30" viewBox="0 0 30 30" fill="none" xmlns="http://www.w3.org/2000/svg">
<path fill-rule="evenodd" clip-rule="evenodd" d="M15 30C23.2843 30 30 23.2843 30 15C30 6.71573 23.2843 0 15 0C6.71573 0 0 6.71573 0 15C0 23.2843 6.71573 30 15 30ZM22.2091 10.6417C22.7426 10.6417 22.8631 10.9086 22.7426 11.2756C22.5546 12.1166 20.9933 14.3477 20.5098 15.0388C20.4179 15.1701 20.3649 15.2458 20.3676 15.2458C20.1783 15.546 20.1095 15.6795 20.3676 16.0131C20.461 16.1365 20.6588 16.3247 20.885 16.5398C21.1176 16.761 21.3801 17.0107 21.5895 17.2476C22.3468 18.0816 22.9319 18.7823 23.0868 19.266C23.2245 19.7498 22.9835 20 22.4672 20H20.6946C20.2249 20 19.9827 19.7385 19.4666 19.1812C19.2454 18.9423 18.9737 18.6489 18.6122 18.2985C17.5624 17.3143 17.0977 17.1808 16.8396 17.1808C16.4782 17.1808 16.3749 17.2642 16.3749 17.7647V19.3161C16.3749 19.7331 16.2372 19.9833 15.1014 19.9833C13.2255 19.9833 11.1431 18.8823 9.68023 16.8305C7.47735 13.8278 6.875 11.5592 6.875 11.1088C6.875 10.8585 6.96105 10.625 7.47735 10.625H9.26719C9.71465 10.625 9.88675 10.8085 10.0588 11.2923C10.9366 13.7444 12.3994 15.8964 13.0018 15.8964C13.2255 15.8964 13.3287 15.7963 13.3287 15.2458V12.7102C13.2863 11.9895 13.0274 11.6755 12.8355 11.4426C12.7164 11.2982 12.6231 11.185 12.6231 11.0254C12.6231 10.8252 12.7952 10.625 13.0706 10.625H15.8586C16.2372 10.625 16.3749 10.8252 16.3749 11.2589V14.6786C16.3749 15.0456 16.5298 15.179 16.6503 15.179C16.874 15.179 17.0633 15.0456 17.4764 14.6452C18.7499 13.2607 19.662 11.1254 19.662 11.1254C19.7825 10.8752 19.989 10.6417 20.4365 10.6417H22.2091Z" fill="#121212"/>
</svg>
