<svg width="57" height="56" viewBox="0 0 57 56" fill="none" xmlns="http://www.w3.org/2000/svg">
<rect x="0.5" width="56" height="56" rx="28" fill="#5AA02C"/>
<path d="M38.4196 18.0741C37.1294 16.7778 35.5929 15.75 33.8995 15.0506C32.2061 14.3511 30.3898 13.994 28.5563 14.0001C20.8739 14.0001 14.6126 20.2301 14.6126 27.874C14.6126 30.324 15.2598 32.704 16.4698 34.804L14.5 42L21.8869 40.068C23.9271 41.174 26.2206 41.762 28.5563 41.762C36.2387 41.762 42.5 35.532 42.5 27.888C42.5 24.178 41.0508 20.6921 38.4196 18.0741ZM28.5563 39.41C26.4739 39.41 24.4337 38.85 22.6467 37.8L22.2246 37.548L17.8347 38.696L19.0025 34.44L18.7211 34.006C17.5639 32.1679 16.9495 30.043 16.9482 27.874C16.9482 21.5181 22.1543 16.3381 28.5422 16.3381C31.6377 16.3381 34.5503 17.5421 36.7312 19.7261C37.8112 20.7955 38.6671 22.0676 39.2492 23.4687C39.8313 24.8698 40.128 26.372 40.1221 27.888C40.1503 34.244 34.9442 39.41 28.5563 39.41ZM34.9161 30.786C34.5643 30.618 32.8477 29.778 32.5382 29.652C32.2146 29.54 31.9894 29.484 31.7502 29.82C31.5111 30.17 30.8497 30.954 30.6528 31.178C30.4558 31.416 30.2447 31.444 29.893 31.262C29.5412 31.094 28.4156 30.716 27.093 29.54C26.0518 28.616 25.3623 27.482 25.1513 27.132C24.9543 26.782 25.1231 26.6 25.306 26.418C25.4608 26.264 25.6578 26.012 25.8266 25.816C25.9955 25.62 26.0658 25.466 26.1784 25.242C26.291 25.004 26.2347 24.808 26.1503 24.64C26.0658 24.472 25.3623 22.7641 25.0809 22.0641C24.7995 21.3921 24.504 21.4761 24.293 21.4621H23.6176C23.3784 21.4621 23.0126 21.5461 22.6889 21.8961C22.3794 22.2461 21.4789 23.0861 21.4789 24.794C21.4789 26.502 22.7312 28.154 22.9 28.378C23.0688 28.616 25.3623 32.116 28.8518 33.614C29.6819 33.978 30.3291 34.188 30.8357 34.342C31.6658 34.608 32.4256 34.566 33.0307 34.482C33.706 34.384 35.099 33.642 35.3804 32.83C35.6759 32.018 35.6759 31.332 35.5774 31.178C35.4789 31.024 35.2678 30.954 34.9161 30.786Z" fill="white"/>
</svg>
