<svg width="20" height="20" viewBox="0 0 20 20" fill="none" xmlns="http://www.w3.org/2000/svg">
<path fill-rule="evenodd" clip-rule="evenodd" d="M10.1274 19.7565H10.1234C8.53114 19.7559 6.96653 19.3526 5.5769 18.5873L0.533333 19.9231L1.88308 14.9456C1.05049 13.4888 0.612385 11.8364 0.613099 10.1434C0.615186 4.84728 4.88321 0.538452 10.1273 0.538452C12.6724 0.539561 15.0612 1.5399 16.8575 3.35556C18.6537 5.17112 19.6424 7.58445 19.6414 10.151C19.6393 15.4459 15.373 19.7543 10.1274 19.7565ZM5.81058 16.8484L6.09933 17.0214C7.31345 17.7488 8.7052 18.1337 10.1242 18.1343H10.1274C14.4859 18.1343 18.0333 14.5527 18.035 10.1504C18.0358 8.01715 17.2141 6.0113 15.7211 4.50219C14.2281 2.99309 12.2427 2.1616 10.1305 2.16086C5.76862 2.16086 2.22118 5.74208 2.21945 10.144C2.21884 11.6525 2.63691 13.1217 3.42849 14.3928L3.61651 14.6949L2.81766 17.641L5.81058 16.8484ZM14.5949 12.2191C14.7607 12.3 14.8727 12.3546 14.9205 12.4352C14.9799 12.5352 14.9799 13.0158 14.7819 13.5765C14.5837 14.1371 13.634 14.6488 13.1773 14.7177C12.7677 14.7795 12.2494 14.8053 11.68 14.6226C11.3347 14.512 10.8919 14.3643 10.3247 14.117C8.09611 13.1455 6.59002 10.9647 6.30537 10.5525C6.28543 10.5236 6.27148 10.5034 6.2637 10.493L6.26178 10.4904C6.13597 10.3209 5.29301 9.18535 5.29301 8.01013C5.29301 6.90458 5.8309 6.3251 6.0785 6.05836C6.09546 6.04009 6.11106 6.02328 6.12503 6.00788C6.34293 5.76759 6.60049 5.70752 6.75896 5.70752C6.91742 5.70752 7.07608 5.709 7.21458 5.71602C7.23167 5.71689 7.24945 5.71678 7.26783 5.71667C7.40636 5.71585 7.57907 5.71483 7.74945 6.12802C7.815 6.28703 7.91091 6.52277 8.01206 6.7714C8.21662 7.2742 8.44264 7.82974 8.4824 7.91013C8.54185 8.03027 8.58145 8.17038 8.50222 8.33063C8.49032 8.35466 8.47932 8.37733 8.46881 8.399C8.4093 8.52168 8.36552 8.61191 8.2645 8.73099C8.22478 8.77781 8.18373 8.82829 8.14268 8.87876C8.06089 8.97932 7.97912 9.07987 7.90791 9.15149C7.7889 9.27118 7.66501 9.40103 7.80368 9.64131C7.94235 9.8816 8.41945 10.6675 9.12616 11.304C9.88585 11.9881 10.5461 12.2772 10.8808 12.4238C10.9461 12.4524 10.9991 12.4756 11.0379 12.4952C11.2755 12.6154 11.4142 12.5953 11.5529 12.4352C11.6916 12.275 12.1472 11.7343 12.3056 11.4941C12.4641 11.2539 12.6226 11.2939 12.8405 11.374C13.0584 11.4541 14.2272 12.0347 14.4649 12.1548C14.5113 12.1783 14.5547 12.1994 14.5949 12.2191Z" fill="#5AA02C"/>
</svg>
